<?xml version="1.0" encoding="utf-8"?>
<!-- Generator: Adobe Illustrator 16.0.0, SVG Export Plug-In . SVG Version: 6.00 Build 0)  -->
<!DOCTYPE svg PUBLIC "-//W3C//DTD SVG 1.1//EN" "http://www.w3.org/Graphics/SVG/1.1/DTD/svg11.dtd">
<svg version="1.1" id="Layer_1" xmlns="http://www.w3.org/2000/svg" xmlns:xlink="http://www.w3.org/1999/xlink" x="0px" y="0px"
	 width="512px" height="512px" viewBox="0 0 512 512" enable-background="new 0 0 512 512" xml:space="preserve">
<g>
	<path fill="#EA5C22" d="M511.849,274.537c-0.714-3.499-3.792-6.012-7.364-6.012h-41.181c-3.276-20.69-19.858-36.926-40.983-39.571
		c-10.29-15.242-27.598-24.556-46.086-24.556c-4.744,0-9.419,0.601-13.971,1.788c-8.053-15.711-24.177-25.834-42.139-25.834
		c-4.412,0-8.756,0.611-12.976,1.82c-11.974-16.305-30.676-25.868-51.15-25.868c-17.572,0-34.026,7.129-46.015,19.749
		c-5.813-2.47-11.881-3.718-18.11-3.718c-7.602,0-14.943,1.79-21.576,5.214C129.769,127.571,68.596,60.031,61.897,53.331
		c-5.963-5.962-13.888-9.245-22.32-9.245s-16.355,3.283-22.316,9.245c-5.962,5.962-9.245,13.887-9.245,22.316
		c0,8.43,3.283,16.357,9.245,22.319c4.976,4.976,63.554,58.255,112.501,98.805c-17.992,2.297-33.257,14.774-39.071,31.936
		c-21.415,2.245-38.635,18.751-41.992,39.818H7.515c-3.57,0-6.649,2.515-7.362,6.014c-0.713,3.5,1.134,7.018,4.42,8.416
		c14.744,6.274,28.281,33.112,42.613,61.527c13.569,26.902,28.951,57.395,49.988,81.267c25.004,28.372,53.36,42.164,86.685,42.164
		h144.282c33.328,0,61.683-13.792,86.687-42.164c21.037-23.872,36.417-54.364,49.987-81.269
		c14.332-28.414,27.869-55.252,42.613-61.526c3.287-1.399,5.135-4.917,4.419-8.417H511.849z M191.875,187.368
		c0.504,0,1.004,0.026,1.505,0.05c-1.914,1.326-3.739,2.83-5.443,4.534c-1.178,1.178-2.264,2.424-3.272,3.727
		c-1.506-1.957-3.076-3.971-4.693-6.029c3.751-1.497,7.768-2.284,11.903-2.284V187.368z M23.045,75.647
		c0-4.417,1.72-8.568,4.844-11.69c3.122-3.12,7.274-4.842,11.688-4.842s8.569,1.721,11.691,4.844
		c7.795,7.795,90.2,98.928,126.148,147.031c-0.293,1.262-0.537,2.538-0.707,3.826C128.952,179.473,33.999,93.448,27.889,87.338
		C24.764,84.214,23.045,80.064,23.045,75.647z M95.309,243.475c0.26,0.034,0.619,0.07,1.032,0.078
		c3.641,0.08,6.798-2.468,7.515-6.032c3.04-15.13,16.462-26.111,31.913-26.111c4.695,0,12.54,1.708,18.845,5.442
		c8.817,6.906,16.783,12.851,23.36,17.314c1.292,0.875,2.759,1.295,4.212,1.295c0.448,0,0.894-0.053,1.333-0.132
		c0.441,0.08,0.892,0.13,1.348,0.13c0.619,0,1.249-0.076,1.875-0.238c4.02-1.032,6.443-5.13,5.409-9.147
		c-2.154-8.383,0.305-17.387,6.415-23.496c9.572-9.571,25.145-9.571,34.716,0c2.936,2.936,7.693,2.934,10.626,0
		c2.936-2.936,2.936-7.695,0-10.627c-5.117-5.12-11.302-8.529-17.845-10.252c8.462-6.671,18.91-10.365,29.938-10.365
		c17.224,0,32.81,8.875,41.695,23.743c1.94,3.245,5.989,4.545,9.454,3.033c4.154-1.812,8.52-2.729,12.976-2.729
		c13.987,0,26.354,9.027,30.77,22.467c0.651,1.982,2.096,3.603,3.99,4.479c1.894,0.872,4.064,0.92,5.995,0.13
		c4.908-2.01,10.074-3.029,15.354-3.029c14.468,0,27.952,7.831,35.188,20.437c1.285,2.239,3.631,3.662,6.212,3.767
		c14.919,0.611,27.083,11.03,30.361,24.891h-131.99c6.701-14.615,4.046-32.501-7.973-44.518
		c-7.475-7.477-17.412-11.592-27.985-11.592h-0.004c-4.149,0-7.514,3.367-7.514,7.515s3.366,7.515,7.516,7.515h0.004
		c6.557,0,12.722,2.553,17.357,7.19c9.307,9.306,9.535,24.27,0.746,33.891H64.007C67.381,254.295,80.104,243.648,95.309,243.475
		L95.309,243.475z M453.104,334.328c-1.328-1.075-3.017-1.68-4.729-1.68c-1.974,0-3.918,0.801-5.311,2.204
		c-1.402,1.393-2.204,3.337-2.204,5.31c0,1.975,0.802,3.918,2.204,5.311c0.941,0.948,2.134,1.613,3.419,1.951
		c-11.971,23.513-25.584,48.705-42.93,68.388c-21.983,24.946-46.651,37.072-75.41,37.072H183.861
		c-28.759,0-53.424-12.126-75.409-37.072c-17.346-19.682-30.958-44.874-42.93-68.388c1.282-0.338,2.478-1.002,3.424-1.949
		c1.393-1.393,2.194-3.336,2.194-5.311c0-1.973-0.801-3.917-2.194-5.31c-1.402-1.403-3.336-2.204-5.32-2.204
		c-1.711,0-3.399,0.604-4.726,1.679c-10.172-20.14-19.573-38.321-30.194-50.776h454.587c-10.621,12.455-20.021,30.639-30.191,50.777
		L453.104,334.328z"/>
	<path fill="#EA5C22" d="M256,372.727c-12.982,0-23.546,10.564-23.546,23.547s10.563,23.546,23.546,23.546
		c12.985,0,23.545-10.561,23.545-23.546S268.984,372.727,256,372.727z M256,404.79c-4.695,0-8.517-3.819-8.517-8.517
		s3.821-8.517,8.517-8.517c4.698,0,8.516,3.821,8.516,8.517S260.697,404.79,256,404.79z M352.188,372.727
		c-12.982,0-23.546,10.564-23.546,23.547s10.563,23.546,23.546,23.546s23.546-10.561,23.546-23.546S365.173,372.727,352.188,372.727
		z M352.188,404.79c-4.695,0-8.517-3.819-8.517-8.517s3.821-8.517,8.517-8.517s8.517,3.821,8.517,8.517
		S356.885,404.79,352.188,404.79z M159.812,372.727c-12.982,0-23.546,10.564-23.546,23.547s10.564,23.546,23.546,23.546
		c12.982,0,23.546-10.561,23.546-23.546S172.797,372.727,159.812,372.727z M159.812,404.79c-4.695,0-8.517-3.819-8.517-8.517
		s3.822-8.517,8.517-8.517c4.695,0,8.517,3.821,8.517,8.517S164.509,404.79,159.812,404.79z M207.906,388.759
		c-1.974,0-3.918,0.802-5.311,2.204c-1.403,1.393-2.204,3.326-2.204,5.311c0,1.983,0.801,3.917,2.204,5.311
		c1.393,1.402,3.336,2.204,5.311,2.204c1.984,0,3.917-0.802,5.31-2.204c1.403-1.394,2.205-3.337,2.205-5.311
		c0-1.984-0.802-3.918-2.205-5.311C211.823,389.561,209.89,388.759,207.906,388.759z M111.718,388.759
		c-1.974,0-3.917,0.802-5.31,2.204c-1.403,1.393-2.205,3.336-2.205,5.311c0,1.974,0.802,3.917,2.205,5.311
		c1.393,1.402,3.336,2.204,5.31,2.204c1.984,0,3.918-0.802,5.311-2.204c1.403-1.394,2.204-3.337,2.204-5.311
		c0-1.975-0.801-3.918-2.204-5.311C115.636,389.561,113.702,388.759,111.718,388.759z M304.094,388.759
		c-1.975,0-3.918,0.802-5.311,2.204c-1.402,1.393-2.205,3.336-2.205,5.311c0,1.974,0.803,3.917,2.205,5.311
		c1.393,1.402,3.336,2.204,5.311,2.204c1.983,0,3.917-0.802,5.31-2.204c1.403-1.394,2.205-3.337,2.205-5.311
		c0-1.975-0.802-3.918-2.205-5.311C308.011,389.561,306.077,388.759,304.094,388.759z M400.281,388.759
		c-1.975,0-3.918,0.802-5.311,2.204c-1.402,1.393-2.204,3.326-2.204,5.311c0,1.983,0.802,3.917,2.204,5.311
		c1.393,1.402,3.336,2.204,5.311,2.204c1.983,0,3.917-0.802,5.311-2.204c1.402-1.394,2.204-3.337,2.204-5.311
		c0-1.975-0.802-3.918-2.204-5.311C404.198,389.561,402.265,388.759,400.281,388.759z M207.906,316.617
		c-12.982,0-23.546,10.564-23.546,23.547s10.563,23.545,23.546,23.545c12.982,0,23.546-10.561,23.546-23.545
		C231.452,327.178,220.891,316.617,207.906,316.617z M207.906,348.68c-4.695,0-8.517-3.818-8.517-8.516s3.821-8.518,8.517-8.518
		c4.695,0,8.517,3.822,8.517,8.518S212.603,348.68,207.906,348.68z M400.281,316.617c-12.982,0-23.546,10.564-23.546,23.547
		s10.563,23.545,23.546,23.545s23.546-10.561,23.546-23.545C423.827,327.178,413.267,316.617,400.281,316.617z M400.281,348.68
		c-4.695,0-8.517-3.818-8.517-8.516s3.821-8.518,8.517-8.518s8.517,3.822,8.517,8.518S404.979,348.68,400.281,348.68z
		 M304.094,316.617c-12.982,0-23.547,10.564-23.547,23.547s10.564,23.545,23.547,23.545s23.546-10.561,23.546-23.545
		C327.64,327.178,317.078,316.617,304.094,316.617z M304.094,348.68c-4.695,0-8.518-3.818-8.518-8.516s3.822-8.518,8.518-8.518
		c4.694,0,8.517,3.822,8.517,8.518S308.79,348.68,304.094,348.68z M111.718,316.617c-12.981,0-23.546,10.565-23.546,23.547
		c0,12.98,10.565,23.545,23.546,23.545c12.981,0,23.546-10.561,23.546-23.545C135.264,327.178,124.703,316.617,111.718,316.617z
		 M111.718,348.68c-4.695,0-8.517-3.818-8.517-8.516s3.822-8.518,8.517-8.518c4.695,0,8.517,3.822,8.517,8.518
		S116.415,348.68,111.718,348.68z M159.812,347.678c1.974,0,3.917-0.801,5.31-2.203c1.403-1.394,2.205-3.337,2.205-5.311
		c0-1.975-0.802-3.918-2.205-5.311c-1.393-1.402-3.326-2.205-5.31-2.205c-1.974,0-3.918,0.803-5.311,2.205
		c-1.403,1.393-2.205,3.336-2.205,5.311c0,1.974,0.802,3.917,2.205,5.311C155.904,346.877,157.838,347.678,159.812,347.678z
		 M256,347.678c1.973,0,3.917-0.801,5.31-2.203c1.403-1.394,2.204-3.337,2.204-5.311c0-1.975-0.801-3.918-2.204-5.311
		c-1.393-1.402-3.326-2.205-5.31-2.205c-1.974,0-3.917,0.803-5.311,2.205c-1.403,1.393-2.204,3.336-2.204,5.311
		c0,1.974,0.801,3.917,2.204,5.311C252.082,346.877,254.025,347.678,256,347.678L256,347.678z M352.188,347.678
		c1.974,0,3.917-0.801,5.31-2.203c1.403-1.394,2.205-3.337,2.205-5.311c0-1.975-0.802-3.918-2.205-5.311
		c-1.393-1.402-3.326-2.205-5.31-2.205c-1.975,0-3.918,0.803-5.311,2.205c-1.403,1.393-2.204,3.326-2.204,5.311
		c0,1.974,0.801,3.917,2.204,5.311C348.27,346.877,350.213,347.678,352.188,347.678z"/>
</g>
</svg>
