<?xml version="1.0" standalone="no"?>
<!DOCTYPE svg PUBLIC "-//W3C//DTD SVG 20010904//EN"
 "http://www.w3.org/TR/2001/REC-SVG-20010904/DTD/svg10.dtd">
<svg version="1.0" xmlns="http://www.w3.org/2000/svg"
 width="1925.000000pt" height="950.000000pt" viewBox="0 0 1925.000000 950.000000"
 preserveAspectRatio="xMidYMid meet">
<metadata>
Created by potrace 1.13, written by Peter Selinger 2001-2015
</metadata>
<g transform="translate(0.000000,950.000000) scale(0.100000,-0.100000)"
fill="#000000" stroke="none">
<path d="M0 6791 l0 -2709 328 -5 c305 -5 338 -7 492 -34 168 -30 203 -31 193
-8 -7 19 -132 78 -233 109 -75 23 -93 33 -154 89 l-69 64 21 29 c45 62 167
171 197 177 39 7 260 -9 367 -27 70 -12 110 -28 253 -101 210 -106 223 -116
230 -177 6 -40 4 -48 -13 -57 -20 -10 -26 -61 -9 -77 14 -15 6 -23 -25 -28
-18 -3 -66 -10 -106 -17 -135 -21 -69 -31 187 -30 220 1 366 -10 466 -35 19
-5 23 1 34 53 7 32 54 180 103 328 l90 270 5 443 c5 402 4 442 -10 442 -90 0
-583 78 -647 102 -81 31 -70 69 29 93 62 15 120 16 533 12 346 -3 493 -9 583
-21 66 -9 175 -19 242 -22 l122 -7 11 27 c5 15 10 56 10 91 0 49 4 64 17 69
17 7 33 -9 33 -31 0 -7 7 -13 15 -13 8 0 15 -8 15 -17 0 -30 22 2 26 37 6 50
26 116 31 103 3 -7 11 -13 18 -13 7 0 16 -5 18 -10 3 -6 4 -5 3 2 -3 16 -51
51 -74 53 -18 1 -84 43 -127 80 -13 12 -38 32 -57 45 -44 32 -156 147 -163
168 -6 16 -115 102 -130 102 -14 0 -115 50 -115 57 0 5 -16 19 -35 32 -19 13
-35 29 -35 36 0 7 -9 15 -20 18 -29 8 -24 29 11 49 17 10 28 22 25 27 -4 5 5
18 19 29 13 11 21 23 17 27 -4 4 19 5 51 3 l57 -5 0 83 c0 87 5 114 22 114 7
0 9 -37 6 -109 l-5 -108 56 -17 c101 -31 214 -93 303 -165 l87 -71 267 0 c256
0 266 1 261 19 -2 10 -1 25 3 32 6 8 11 -1 16 -27 10 -58 21 -74 67 -95 38
-17 40 -19 20 -25 -19 -5 -21 -9 -12 -26 7 -14 7 -23 -2 -34 -10 -12 -9 -16 9
-21 21 -5 38 -49 33 -89 -1 -11 5 -27 14 -34 14 -12 16 -12 14 1 -5 27 13 149
23 155 7 4 9 -27 6 -93 l-3 -99 62 53 c114 96 195 120 366 110 197 -13 307
-58 432 -179 45 -43 86 -78 91 -78 5 0 18 30 28 68 31 116 34 121 30 52 -4
-63 -4 -64 10 -35 8 17 20 54 27 83 7 28 16 52 20 52 17 0 18 -20 4 -60 -8
-23 -15 -46 -15 -50 0 -16 75 -20 483 -26 319 -4 417 -3 417 6 0 7 6 10 14 7
8 -3 17 -1 20 6 3 9 5 8 5 -1 1 -8 6 -10 13 -6 7 5 19 9 28 10 31 3 45 10 63
28 14 16 21 17 42 8 19 -9 25 -9 25 0 0 9 3 9 12 0 16 -16 28 -15 28 2 0 21
23 26 133 27 56 0 127 4 157 8 52 6 124 0 135 -11 3 -3 -2 -22 -11 -43 -9 -22
-17 -77 -19 -129 -2 -50 -8 -122 -14 -161 -15 -109 -19 -165 -12 -165 4 0 16
6 27 14 16 12 19 27 19 98 0 46 4 90 7 98 4 8 12 49 18 90 8 54 20 91 45 133
19 32 35 64 35 71 0 7 14 23 31 35 22 17 28 26 20 34 -6 6 -11 19 -11 29 0 15
5 17 25 12 16 -4 25 -2 25 5 0 7 -8 11 -17 9 -15 -2 -17 3 -14 32 l3 35 -39
-41 c-21 -22 -50 -56 -65 -75 -37 -45 -24 -8 18 55 19 28 32 51 31 53 -2 1
-161 7 -353 13 -608 17 -1109 33 -1112 35 -1 1 5 19 13 41 15 37 15 38 10 7
l-4 -33 173 0 c147 0 173 2 173 15 0 8 -4 15 -9 15 -4 0 -8 -4 -8 -10 0 -5
-10 -10 -22 -10 -20 0 -20 1 -4 19 10 11 13 21 7 25 -5 4 -12 2 -16 -4 -3 -5
-12 -10 -18 -10 -7 0 -6 4 3 10 10 6 11 10 3 10 -7 0 -13 12 -13 26 0 20 -4
25 -16 20 -9 -4 -23 -1 -30 5 -11 9 -14 7 -14 -7 0 -13 -3 -15 -8 -7 -4 7 -23
12 -42 11 -19 0 -46 2 -61 4 -28 5 -70 27 -53 28 7 0 9 11 7 28 -4 21 -2 24 6
12 8 -12 10 -9 7 13 -5 49 -13 39 -33 -45 -14 -56 -21 -73 -22 -51 -1 17 4 54
10 81 15 61 7 91 -18 71 -15 -13 -16 -11 -10 12 7 28 -13 46 -36 32 -7 -4 -6
1 2 10 8 10 27 17 46 17 40 0 65 24 39 38 -15 8 -15 10 0 15 21 8 20 27 -1 27
-17 1 -17 1 0 14 15 12 16 14 2 20 -8 3 -22 3 -30 0 -8 -4 -15 -1 -15 5 0 6
10 11 23 11 15 0 18 3 9 8 -8 5 -10 16 -5 28 6 17 5 17 -10 5 -9 -7 -17 -9
-17 -5 0 5 9 15 20 22 13 8 17 18 13 29 -6 16 -5 16 10 4 15 -12 17 -11 17 7
0 12 -5 24 -10 27 -7 5 -8 11 -1 19 5 6 8 33 6 59 -2 30 2 53 10 60 10 9 8 14
-8 22 -25 12 -37 41 -14 32 9 -3 19 -1 23 5 4 6 3 8 -3 5 -6 -4 -18 4 -27 18
-16 24 -16 25 5 25 18 0 19 2 9 15 -7 8 -19 15 -26 15 -16 0 -19 26 -4 35 14
9 1 32 -21 38 -12 3 -19 14 -19 30 0 20 -4 24 -20 20 -17 -5 -20 0 -20 26 0
17 -5 30 -11 28 -6 -1 -16 7 -22 18 -7 11 -16 23 -21 26 -5 4 -5 12 -1 19 6
10 3 12 -11 8 -11 -3 -25 1 -32 9 -10 10 -10 13 4 13 13 0 15 6 10 28 -4 18
-4 22 3 13 5 -7 14 -10 21 -6 9 6 9 9 -1 16 -10 6 -11 9 -1 9 6 0 12 8 12 18
0 9 4 13 8 7 12 -16 112 -15 112 1 0 17 -17 18 -23 2 -3 -7 -6 0 -6 15 -1 16
-5 26 -11 22 -5 -3 -7 -12 -3 -20 3 -8 0 -15 -6 -15 -6 0 -11 7 -11 15 0 8 -7
15 -17 15 -30 0 -4 13 32 16 24 2 38 -2 41 -11 3 -7 12 -16 21 -19 11 -4 13
-2 9 9 -3 8 -2 15 2 15 4 0 8 9 9 20 1 11 -2 20 -8 20 -5 0 -9 -4 -9 -9 0 -15
-49 1 -53 18 -4 14 -5 14 -6 -1 -1 -24 -17 -23 -24 2 -4 14 0 20 11 21 15 0
15 1 0 7 -16 7 -16 9 2 37 11 17 19 39 19 50 -1 19 -2 19 -6 1 -5 -20 -27 -46
-37 -46 -3 0 -6 7 -6 15 0 8 -4 15 -10 15 -5 0 -10 17 -10 38 0 21 -5 43 -11
49 -16 16 2 45 21 33 13 -8 12 -10 -2 -10 -10 0 -18 -5 -18 -11 0 -5 4 -8 9
-4 6 3 11 -15 13 -41 2 -27 8 -49 16 -52 8 -2 10 2 5 14 -4 12 -3 15 5 10 7
-4 12 -1 12 8 0 9 5 16 11 16 8 0 8 4 0 13 -8 10 -7 19 4 33 9 12 17 15 22 9
5 -6 19 -11 33 -12 14 -1 19 1 13 4 -7 3 -13 11 -13 20 0 10 -6 12 -20 8 -14
-5 -20 -2 -20 9 0 9 -5 16 -11 16 -6 0 -9 7 -6 15 4 8 2 17 -3 20 -19 12 -10
25 17 25 19 0 24 3 16 11 -6 6 -21 9 -34 7 -21 -3 -24 -8 -21 -39 4 -41 -9
-57 -28 -34 -11 13 -10 14 6 8 16 -6 17 -4 7 9 -18 22 2 78 28 78 10 0 19 5
19 11 0 6 7 9 14 6 10 -4 13 -1 9 9 -3 7 -1 14 5 14 5 0 7 11 4 25 -2 14 -11
25 -18 25 -11 0 -10 4 3 19 12 15 21 17 34 11 14 -8 19 -3 28 35 13 54 14 65
0 43 -5 -10 -15 -18 -21 -18 -7 0 -7 4 1 13 6 8 8 17 4 21 -11 11 16 24 37 19
12 -3 16 -11 13 -20 -4 -11 -2 -14 8 -11 19 6 24 35 7 41 -7 2 -3 2 10 0 15
-2 22 2 22 12 0 14 -11 19 -37 16 -7 -1 -13 2 -13 7 0 17 29 34 46 28 12 -5
15 -2 10 10 -3 8 -6 18 -6 20 0 3 -5 2 -12 -2 -7 -4 -8 -3 -4 5 4 6 12 9 17 6
5 -4 9 -2 9 4 0 5 -8 14 -17 20 -17 9 -16 11 4 29 15 13 19 22 12 29 -7 7 1
16 23 27 l33 17 -32 -5 c-25 -4 -33 -2 -33 10 0 11 6 14 23 9 20 -6 21 -5 5 8
-24 19 -23 27 5 27 22 0 22 1 -3 13 -14 8 -23 20 -21 28 3 12 6 29 10 48 1 2
8 -2 16 -9 8 -7 15 -9 16 -4 4 35 6 53 7 77 1 16 6 25 12 22 6 -3 10 4 11 17
l0 23 9 -22 c11 -27 23 -29 40 -8 10 12 10 15 -1 15 -10 1 -8 4 4 11 9 5 22 7
29 3 8 -5 9 -2 5 9 -4 10 -1 17 6 17 15 1 52 50 37 50 -7 0 -5 7 4 15 12 12
20 14 36 5 16 -8 20 -8 20 3 0 8 7 20 15 27 8 7 15 26 15 43 0 17 7 38 15 47
9 10 18 52 24 106 9 85 35 216 47 235 3 5 10 6 16 3 7 -5 9 -1 5 9 -9 23 2 47
20 47 8 0 12 4 9 9 -8 13 31 44 44 36 7 -4 16 -1 21 6 4 8 17 15 29 15 11 1
22 3 25 4 5 3 59 8 130 12 17 1 118 -1 225 -6 314 -13 401 -20 441 -37 l29
-11 1 -142 c0 -77 4 -150 9 -161 6 -15 9 -8 9 27 1 26 6 94 12 150 11 113 26
139 78 138 14 -1 69 3 121 7 l95 8 -95 8 c-208 16 -441 27 -780 37 -440 12
-643 19 -740 25 -41 2 -208 9 -370 16 -162 6 -322 14 -355 19 -33 5 -1128 9
-2432 9 l-2373 1 0 -2709z m4795 2669 c7 6 24 6 46 0 18 -6 50 -10 71 -10 21
0 44 -7 53 -17 11 -10 19 -12 23 -6 4 6 15 7 27 2 14 -5 15 -8 5 -9 -9 -1 -6
-5 8 -11 13 -5 22 -15 19 -21 -2 -7 0 -22 6 -32 8 -16 6 -18 -7 -13 -17 7 -22
-8 -6 -18 6 -3 10 -14 9 -23 0 -11 -3 -12 -6 -4 -6 15 -33 16 -33 2 0 -6 7
-13 15 -16 8 -4 12 -10 9 -15 -3 -5 0 -9 5 -9 17 0 13 -21 -6 -36 -17 -13 -17
-13 0 -14 17 0 17 -2 -3 -27 -13 -17 -17 -29 -10 -33 6 -4 8 -14 4 -23 -4 -10
-1 -17 6 -17 9 0 7 -7 -6 -21 -15 -17 -16 -22 -4 -29 12 -7 12 -12 3 -21 -7
-7 -9 -24 -6 -42 5 -22 1 -33 -12 -44 -11 -7 -13 -13 -6 -13 7 0 -1 -11 -16
-25 -15 -13 -23 -25 -16 -25 6 0 15 5 18 10 3 6 11 10 17 10 6 0 3 -9 -6 -19
-12 -13 -14 -21 -6 -26 8 -5 5 -11 -7 -20 -17 -13 -17 -14 1 -34 19 -21 19
-21 0 -22 -16 -1 -16 -2 -2 -6 23 -6 21 -59 -4 -70 -18 -8 -18 -9 -1 -43 14
-27 16 -42 8 -67 -5 -18 -13 -33 -17 -33 -15 0 -8 -19 9 -22 15 -3 15 -4 0
-20 -12 -12 -14 -18 -4 -21 9 -4 9 -8 -1 -15 -12 -8 -12 -13 -1 -30 12 -19 11
-23 -4 -35 -13 -9 -17 -21 -13 -41 5 -30 16 -48 16 -28 0 7 5 12 10 12 17 0
11 -28 -7 -39 -17 -10 -17 -10 0 -11 19 0 23 -15 6 -25 -6 -4 -8 -14 -5 -22 3
-8 -1 -24 -9 -37 -13 -20 -13 -26 5 -61 15 -30 17 -42 8 -53 -10 -11 -8 -16 7
-24 18 -11 18 -11 0 -24 -18 -14 -18 -14 1 -15 10 0 13 -3 7 -6 -18 -7 -16
-23 1 -23 8 0 18 -9 21 -20 3 -11 12 -20 18 -21 7 0 2 -4 -11 -9 -12 -5 -30
-6 -39 -3 -13 5 -12 1 5 -17 13 -15 20 -31 16 -42 -4 -14 0 -18 17 -18 18 0
19 -3 9 -15 -6 -8 -9 -19 -5 -25 5 -8 -5 -10 -32 -5 -30 4 -33 3 -15 -4 32
-15 28 -35 -5 -27 -27 6 -27 6 -5 -7 17 -10 20 -15 10 -25 -9 -9 -9 -12 -1
-12 7 0 11 -9 10 -20 -1 -11 -5 -20 -9 -20 -4 0 -5 -7 -2 -15 4 -8 -2 -27 -11
-41 -9 -15 -12 -23 -6 -20 6 4 12 0 12 -11 4 -39 6 -49 13 -66 5 -10 3 -23 -4
-32 -7 -8 -9 -15 -6 -15 4 0 0 -7 -8 -16 -20 -20 -3 -58 23 -51 19 5 41 -15
41 -38 0 -8 7 -15 15 -15 8 0 15 -6 15 -14 0 -17 37 -28 43 -12 3 7 11 5 23
-6 18 -17 18 -18 -1 -19 -15 0 -16 -2 -5 -6 18 -7 49 -42 52 -57 6 -46 20 -75
44 -91 22 -14 36 -43 14 -30 -13 8 -13 3 1 -32 10 -27 13 -53 23 -203 3 -36 6
-67 7 -70 1 -3 1 -9 0 -13 -5 -27 -4 -188 1 -192 7 -7 -40 -95 -51 -95 -4 0
-5 21 -1 46 4 26 8 82 9 125 2 63 -1 79 -15 87 -18 10 -15 48 4 44 17 -3 15
12 -7 39 -14 17 -16 30 -11 56 5 18 4 35 0 38 -4 2 -7 17 -7 32 0 15 -6 29
-12 31 -6 2 -11 8 -11 14 0 6 7 8 15 4 20 -7 19 0 -5 33 -12 15 -22 37 -23 49
-1 12 -4 22 -8 22 -4 0 -14 12 -24 26 -13 20 -14 28 -5 34 8 5 4 13 -12 26
-14 11 -23 24 -21 29 1 6 -13 21 -33 34 -21 15 -37 35 -41 53 -3 15 -9 25 -14
22 -4 -2 -17 4 -29 16 -11 11 -33 20 -50 20 -18 0 -33 6 -36 15 -4 8 -13 15
-21 15 -9 0 -13 6 -10 14 7 18 -13 26 -61 26 -20 0 -54 5 -75 11 -33 9 -37 12
-26 26 12 13 8 15 -31 13 -71 -4 -102 -1 -95 10 8 12 -11 13 -33 1 -9 -5 -36
-11 -60 -14 -23 -2 -51 -12 -62 -22 -11 -10 -22 -16 -25 -13 -9 8 6 38 16 32
5 -3 9 3 10 13 2 53 9 118 13 130 3 7 0 13 -7 13 -8 0 -9 3 -1 8 6 4 12 42 13
87 1 43 4 82 6 85 2 3 6 43 10 90 7 92 14 175 20 230 2 19 7 78 10 130 4 52
11 97 16 98 5 2 6 8 3 14 -4 6 -1 14 6 18 9 6 9 12 0 29 -9 18 -9 26 2 38 7 9
14 37 15 62 1 43 11 146 13 146 1 0 2 35 3 78 1 62 4 77 17 77 9 0 11 3 5 8
-5 4 -10 49 -11 100 0 51 3 87 6 81 4 -6 12 3 19 22 8 22 8 36 1 43 -13 13
-13 39 0 31 5 -3 13 7 16 22 5 17 3 28 -5 31 -8 3 -9 8 -2 16 16 20 19 135 3
145 -26 16 15 34 63 28 30 -5 45 -3 45 4 0 8 13 10 35 6 19 -3 37 -1 41 5 4 6
10 6 17 -1 7 -7 15 -7 22 -1z m-2799 -3111 c12 -13 14 -23 8 -27 -16 -11 -33
-46 -71 -151 -62 -170 -93 -275 -97 -326 l-4 -50 -54 -11 c-29 -6 -63 -14 -76
-18 l-23 -8 6 74 c11 116 40 250 69 309 36 74 176 221 217 228 3 1 14 -8 25
-20z"/>
<path d="M7480 9433 c0 -38 0 -243 0 -458 0 -214 -5 -685 -11 -1045 -10 -522
-15 -658 -25 -671 -16 -18 -18 -39 -4 -39 6 0 10 -4 10 -9 0 -4 -19 -11 -41
-14 -54 -7 -75 -27 -60 -55 6 -11 11 -64 11 -116 0 -84 2 -96 18 -97 9 0 1 -6
-18 -13 l-35 -13 -1 -178 0 -177 45 -20 c83 -36 93 -37 138 -11 30 18 59 25
102 26 l59 2 5 35 c2 19 5 94 6 166 l2 131 -48 19 c-27 10 -41 20 -32 22 11 2
18 18 22 50 3 25 10 48 15 50 6 2 9 9 6 17 -3 7 4 19 16 25 12 6 19 14 16 17
-3 3 -13 0 -21 -7 -25 -21 -40 3 -37 60 1 33 -2 52 -10 55 -7 2 -32 9 -55 15
-35 9 -40 13 -36 31 3 12 0 25 -7 29 -10 6 -10 179 -1 911 7 497 15 1000 18
1117 l6 212 -27 0 c-26 0 -26 -1 -26 -67z"/>
<path d="M10897 9378 l-78 -121 -197 8 c-108 4 -215 9 -237 10 -22 2 -103 6
-180 9 -77 4 -158 9 -180 11 -22 3 -155 10 -295 15 -140 6 -320 15 -400 20
-232 16 -1093 60 -1161 60 -273 0 418 -46 1211 -80 135 -6 288 -15 340 -20 52
-6 176 -15 275 -21 352 -22 370 -27 80 -24 -278 3 -279 3 -176 -11 108 -15
274 -54 311 -74 11 -6 18 -15 15 -20 -3 -5 3 -11 13 -14 43 -14 84 -160 87
-311 0 -16 4 -33 9 -36 5 -4 10 -18 11 -32 2 -14 6 -31 10 -36 3 -6 0 -11 -7
-12 -7 0 -3 -5 10 -11 13 -6 21 -17 18 -23 -6 -16 58 -35 113 -35 22 0 41 -5
41 -11 0 -5 -3 -8 -7 -6 -5 3 -125 7 -268 10 -156 3 -220 2 -160 -3 253 -19
355 -33 355 -46 0 -8 -7 -14 -16 -14 -14 0 -14 -3 -4 -15 11 -13 10 -14 -4 -9
-10 4 -16 1 -16 -9 0 -8 -7 -28 -15 -43 -14 -28 -14 -29 11 -32 20 -3 25 -8
21 -23 -3 -13 4 -26 21 -40 18 -14 23 -23 15 -26 -7 -3 -13 -9 -13 -14 0 -6 5
-7 11 -3 8 5 10 -1 7 -20 -3 -14 -2 -26 2 -26 5 0 6 -9 3 -20 -3 -11 -1 -20 4
-20 5 0 10 -14 10 -30 0 -17 -3 -26 -7 -20 -5 7 -9 4 -13 -9 -2 -11 0 -22 7
-24 8 -3 7 -9 -3 -20 -12 -15 -11 -17 8 -17 14 0 20 -4 15 -11 -3 -6 0 -15 7
-20 12 -8 11 -12 -3 -23 -23 -17 -23 -26 2 -26 15 0 20 -7 20 -26 0 -37 -19
-67 -37 -60 -12 5 -14 1 -9 -20 5 -17 3 -23 -4 -19 -5 3 -10 0 -10 -7 1 -15
29 -55 35 -48 2 3 7 2 11 -2 4 -5 -1 -8 -11 -8 -13 0 -15 -3 -7 -12 17 -21 15
-30 -10 -43 -13 -6 -22 -17 -20 -24 1 -6 -2 -21 -8 -31 -8 -15 -8 -20 2 -20
10 0 10 -2 -1 -9 -7 -5 -10 -14 -7 -20 4 -6 0 -19 -9 -28 -13 -13 -14 -17 -3
-24 7 -5 14 -4 16 1 2 6 10 10 18 10 10 0 11 -6 4 -26 -13 -33 -13 -34 4 -28
21 8 29 -14 12 -32 -19 -19 -21 -28 -3 -21 7 3 13 -3 13 -13 0 -10 -3 -18 -6
-18 -23 2 -30 -6 -30 -32 0 -16 4 -30 9 -30 5 0 13 -9 16 -21 5 -16 12 -19 31
-15 20 5 24 3 22 -10 -2 -13 9 -25 40 -41 2 -1 -6 -11 -18 -23 -16 -16 -24
-19 -30 -10 -5 9 -9 9 -14 1 -4 -6 3 -15 16 -20 13 -6 17 -10 11 -10 -7 -1
-22 -9 -33 -18 -19 -16 -19 -18 -3 -25 12 -4 7 -6 -12 -4 -17 1 -36 6 -43 10
-8 5 -12 0 -12 -14 0 -13 -8 -24 -20 -27 -11 -3 -17 -10 -14 -15 8 -12 65 0
87 20 16 14 17 13 17 -6 0 -14 -6 -22 -17 -22 -11 0 -14 -3 -7 -8 17 -11 24
-74 7 -68 -7 3 -17 -4 -23 -14 -6 -11 -17 -20 -25 -20 -20 0 -19 -10 3 -26 16
-13 16 -13 -3 -14 -11 0 -27 -5 -35 -11 -12 -8 -11 -9 6 -4 17 4 23 0 28 -17
5 -18 8 -20 15 -9 7 11 9 11 13 0 3 -8 -8 -27 -24 -42 -15 -16 -28 -35 -28
-42 0 -8 -10 -15 -21 -17 -12 -2 -31 -16 -43 -31 -18 -24 -19 -29 -6 -37 12
-8 11 -10 -5 -10 -15 0 -21 -8 -22 -32 -1 -17 -7 -36 -13 -42 -13 -13 -13 -53
0 -61 6 -4 5 -13 -2 -24 -6 -11 -8 -26 -3 -37 16 -37 13 -43 -22 -50 -19 -4
-37 -12 -40 -20 -3 -7 -12 -10 -21 -6 -16 6 -16 4 -1 -18 19 -30 31 -72 18
-64 -5 3 -17 0 -26 -5 -10 -6 -12 -11 -5 -11 6 0 12 -4 12 -10 0 -5 -7 -6 -17
-3 -11 5 -14 3 -8 -6 4 -8 2 -16 -5 -21 -9 -6 -8 -15 5 -40 15 -30 15 -32 1
-27 -13 5 -16 -1 -16 -28 0 -19 -4 -35 -8 -35 -5 0 -9 -18 -10 -40 -1 -26 2
-40 11 -40 8 0 7 -3 -2 -9 -12 -8 -10 -12 10 -20 21 -9 420 -29 934 -47 l180
-7 0 184 0 184 233 0 232 0 0 103 c0 89 3 105 20 122 11 11 29 20 40 20 19 0
20 7 20 110 0 68 4 110 10 110 7 0 9 -40 8 -107 -3 -98 -1 -108 15 -105 9 2
24 -1 33 -6 13 -7 9 -11 -20 -16 l-36 -7 0 -163 0 -164 65 -11 c36 -7 82 -20
103 -31 21 -11 61 -20 94 -21 45 -2 57 -6 61 -21 3 -10 11 -18 19 -18 7 0 19
-9 25 -19 11 -17 8 -20 -31 -30 -24 -6 -47 -18 -50 -27 -3 -9 -12 -14 -20 -11
-15 6 -144 -19 -160 -32 -6 -4 -55 -20 -108 -36 -54 -16 -98 -32 -98 -36 0 -4
-10 -11 -22 -15 -13 -3 -54 -37 -91 -75 -37 -38 -71 -69 -76 -69 -10 0 -61
-57 -61 -69 0 -5 -4 -11 -10 -13 -5 -1 -11 -30 -14 -63 -2 -33 -9 -81 -15
-106 -15 -70 -21 -153 -11 -168 7 -12 44 -13 257 -2 267 13 516 5 768 -25 72
-8 155 -18 186 -21 72 -7 163 -50 167 -79 2 -17 -7 -25 -45 -41 -82 -35 -217
-54 -545 -78 l-88 -7 0 -244 c0 -210 2 -244 15 -244 8 0 15 5 15 10 0 6 7 10
15 10 8 0 15 4 15 8 0 5 11 12 24 18 13 5 41 24 63 42 99 84 140 112 170 118
17 3 34 12 37 19 10 26 86 38 196 30 148 -9 160 -11 220 -39 l55 -25 -32 -7
c-18 -3 -33 -10 -33 -15 0 -5 -6 -9 -13 -9 -6 0 -50 -18 -95 -40 -95 -46 -96
-57 -11 -79 28 -8 63 -20 78 -27 46 -25 68 -13 36 20 -22 22 -20 24 33 32 26
3 56 8 67 10 11 3 76 7 145 10 120 6 258 -7 370 -36 19 -5 64 -16 100 -25 82
-20 335 -113 400 -145 8 -5 34 -13 57 -19 45 -12 170 -104 196 -145 23 -34 24
-98 3 -130 -9 -14 -12 -26 -6 -26 20 0 10 -20 -17 -34 -39 -20 -27 -23 192
-36 248 -16 236 -14 252 -35 20 -28 16 -53 -9 -61 -13 -4 -31 -12 -41 -19 -15
-11 -13 -12 20 -11 53 1 50 -21 -7 -51 -34 -17 -55 -21 -86 -17 -22 3 -55 7
-72 8 -32 2 -65 33 -55 49 3 5 22 6 42 4 33 -5 34 -5 10 5 -14 6 -31 19 -37
28 -9 15 -2 18 69 28 44 7 86 18 94 26 17 16 -15 20 -270 36 -373 22 -1236 42
-1360 30 -63 -6 59 -19 195 -20 74 -1 178 -6 230 -10 73 -5 33 -7 -166 -8
-211 -2 -264 -5 -273 -16 -17 -20 21 -24 317 -32 139 -4 251 -9 248 -11 -2 -2
-122 -4 -265 -3 -257 1 -361 -5 -361 -20 0 -4 120 -11 268 -15 425 -12 484
-22 135 -24 -286 -1 -332 -5 -308 -29 4 -4 115 -11 248 -17 l242 -10 -230 -6
c-274 -8 -256 -6 -249 -22 12 -33 44 -37 346 -43 167 -4 305 -8 307 -10 2 -2
-164 -5 -370 -5 -220 -1 -353 -5 -324 -9 28 -5 102 -9 166 -9 64 -1 199 -4
300 -8 l184 -8 -302 -5 c-166 -3 -305 -8 -309 -13 -4 -4 -4 -10 0 -14 9 -9
267 -20 553 -25 351 -5 220 -18 -194 -19 -360 0 -469 -6 -423 -22 16 -6 242
-14 615 -23 121 -3 222 -7 224 -10 2 -2 -166 -4 -375 -4 -353 0 -422 -5 -400
-27 4 -4 158 -11 343 -15 184 -3 336 -8 339 -10 2 -3 -139 -8 -315 -11 -307
-7 -351 -10 -351 -27 0 -18 46 -23 250 -28 260 -7 232 -19 -50 -22 -222 -2
-303 -12 -190 -23 36 -4 228 -9 428 -11 200 -2 365 -6 368 -8 2 -3 -165 -8
-372 -11 -207 -4 -382 -11 -390 -15 -12 -6 -12 -11 -1 -25 10 -15 39 -19 197
-26 120 -5 157 -9 105 -11 -44 -1 -120 -5 -170 -9 -72 -6 -80 -8 -40 -11 286
-16 286 -16 200 -19 -44 -2 -84 -4 -90 -6 -5 -1 -53 -3 -105 -4 -96 -1 -134
-11 -115 -30 6 -5 69 -13 140 -17 145 -9 138 -21 -15 -24 -52 -1 -108 -5 -125
-9 l-30 -7 30 -7 c17 -3 82 -9 146 -12 133 -8 153 -15 122 -42 -30 -26 -50
-82 -33 -93 15 -9 687 -23 920 -18 l165 3 -1 32 c-1 18 -12 45 -24 60 -20 26
-20 28 -3 34 10 4 46 8 79 8 47 1 63 5 68 17 9 22 8 24 -11 24 -31 1 27 38 72
46 l40 8 -35 7 -35 6 41 2 c22 0 49 7 59 15 18 13 17 14 -15 23 -19 5 -61 8
-92 7 -56 -1 -56 -1 -47 23 13 34 8 47 -21 54 -21 6 -19 7 12 8 20 0 38 5 40
11 2 5 36 12 76 16 39 4 72 11 72 15 0 5 -45 9 -100 9 -55 0 -100 4 -100 9 0
5 4 21 10 35 8 22 16 26 52 27 24 1 35 3 26 6 -29 7 -21 20 17 27 44 9 45 22
3 31 -75 15 -87 26 -45 40 20 7 19 8 -11 12 -51 7 -33 26 42 45 64 16 102 35
92 45 -3 3 -50 9 -106 13 -56 4 -103 10 -106 13 -9 8 9 38 29 49 11 6 61 13
110 16 74 4 87 7 74 17 -9 7 -14 15 -10 18 11 12 62 7 70 -6 4 -7 31 -18 58
-25 28 -7 95 -35 150 -62 l100 -49 149 -10 c177 -11 203 -23 198 -86 l-4 -38
79 7 c348 30 465 37 729 42 400 7 775 -20 829 -60 30 -22 9 -38 -43 -31 l-47
6 39 -15 c55 -21 72 -41 27 -32 -19 3 -66 8 -105 11 l-71 4 84 -14 c46 -7 89
-19 95 -26 8 -9 7 -11 -6 -6 -35 12 -118 19 -118 10 0 -5 33 -18 73 -29 l72
-19 -50 -6 -50 -5 42 -8 c24 -5 51 -15 60 -22 15 -12 3 -13 -87 -9 l-105 4 77
-10 c104 -13 128 -22 121 -48 -5 -20 -11 -21 -167 -17 -88 2 -136 2 -106 0 89
-6 237 -23 254 -30 9 -3 16 -11 16 -16 0 -6 -55 -8 -152 -4 -177 7 -183 2 -16
-14 118 -10 177 -24 164 -38 -4 -4 -78 -6 -164 -5 l-157 1 138 -9 c76 -6 150
-15 165 -21 26 -12 25 -12 -23 -18 l-50 -6 38 -8 c58 -13 44 -26 -30 -27 -71
-1 -69 -4 10 -14 65 -9 59 -25 -9 -25 -63 0 -65 -15 -3 -23 46 -6 59 -14 41
-26 -9 -5 -5 -11 13 -19 70 -32 29 -34 -782 -32 -445 2 -817 -1 -827 -5 -14
-6 -17 -5 -12 3 4 7 3 12 -3 12 -5 0 -11 -5 -13 -10 -2 -7 -19 -7 -49 -2 -25
5 -70 5 -100 1 -30 -4 -80 -8 -111 -8 -47 -1 -56 -4 -52 -16 5 -13 -60 -15
-547 -16 -305 -1 -540 -5 -524 -9 17 -4 22 -8 13 -9 -30 -2 -68 -24 -68 -39 0
-14 -123 -15 -1082 -9 -595 4 -1163 10 -1261 14 l-179 6 5 36 c3 20 1 45 -3
56 -8 17 -9 18 -11 3 -1 -10 -3 -22 -4 -28 -1 -5 -3 -22 -4 -36 -1 -26 -2 -26
-57 -22 -31 3 -59 11 -64 18 -4 7 -12 10 -17 7 -5 -3 -15 4 -23 16 -12 20 -12
21 3 9 9 -8 18 -9 21 -4 3 6 -1 12 -9 16 -8 3 -151 8 -317 11 -167 3 -382 7
-478 10 -343 9 -1954 14 -1920 6 19 -5 30 -9 23 -10 -7 0 -10 -7 -7 -15 7 -17
-253 -22 -994 -19 -345 2 -521 0 -517 -7 4 -6 80 -10 193 -10 103 0 231 -3
284 -7 l98 -6 -6 -111 c-3 -61 -11 -315 -19 -563 -7 -249 -16 -457 -20 -463
-3 -5 -17 -10 -30 -10 -13 0 -26 -3 -29 -8 -4 -7 -435 -6 -443 2 -7 7 -4 256
7 496 5 123 8 226 5 229 -3 2 -22 -5 -43 -17 -31 -18 -38 -27 -42 -62 l-5 -42
-11 36 c-6 20 -8 36 -4 36 4 0 10 9 13 20 3 11 1 20 -4 20 -5 0 -9 -7 -9 -15
0 -22 -49 -39 -76 -26 -12 5 -73 7 -140 5 -115 -5 -122 -4 -189 25 -38 16 -71
34 -73 40 -6 18 48 24 107 11 50 -10 67 -10 117 5 79 23 176 68 194 89 13 16
12 20 -8 36 -13 11 -47 21 -84 24 -72 8 -178 45 -178 62 0 19 62 37 71 22 6
-10 17 -10 54 0 25 7 63 12 84 12 60 0 69 21 26 63 -52 50 -134 78 -210 72
-33 -3 -67 -8 -75 -12 -8 -3 -60 -5 -115 -4 -73 0 -114 -4 -152 -18 -29 -10
-53 -17 -53 -15 0 1 21 14 46 29 25 15 43 29 41 32 -3 2 4 14 15 25 24 24 16
36 -56 78 -76 44 -141 110 -107 110 4 0 37 -22 72 -48 35 -26 85 -63 111 -81
l47 -34 40 32 c25 20 38 37 34 46 -3 9 4 18 18 24 13 5 21 10 17 10 -4 1 -1
16 7 34 7 17 14 35 14 40 1 4 1 8 2 10 0 1 2 27 3 58 2 31 6 60 9 66 4 6 4 18
1 27 -3 9 -2 16 3 16 5 0 10 21 12 47 1 26 4 49 6 52 3 2 -1 11 -8 19 -10 13
-9 15 5 9 16 -5 16 -4 5 15 -6 12 -18 29 -25 37 -8 8 -11 23 -8 33 2 11 2 17
-1 14 -3 -3 -12 2 -20 10 -13 13 -12 17 9 34 12 11 17 19 11 20 -7 0 -13 7
-13 15 0 8 -5 15 -10 15 -7 0 -7 6 0 20 8 14 8 26 0 41 -7 11 -9 27 -6 34 3 8
1 17 -3 20 -12 7 -33 -20 -23 -30 4 -4 -3 -2 -15 5 -11 8 -19 20 -16 27 3 7 0
13 -5 13 -6 0 -14 10 -19 23 -11 30 -10 110 1 118 16 12 -3 26 -29 21 -16 -3
-24 -10 -23 -20 4 -21 -44 -33 -60 -16 -8 9 -9 14 -2 14 6 0 8 4 5 10 -4 6 1
7 12 3 17 -6 17 -5 -1 15 -11 12 -16 22 -11 22 4 0 2 7 -5 15 -7 8 -9 15 -5
15 4 0 2 7 -5 15 -8 9 -8 15 -2 15 6 0 10 14 10 30 -1 17 -5 30 -9 30 -5 0 -6
6 -3 13 6 16 -18 39 -38 36 -23 -3 -63 2 -52 7 7 3 4 24 -9 62 -14 38 -20 82
-20 135 0 52 -4 76 -11 74 -13 -4 -22 -57 -31 -177 -3 -47 -8 -108 -10 -136
-13 -157 3 -570 26 -682 6 -30 8 -56 6 -59 -12 -11 -25 8 -31 44 -4 21 -20 92
-35 158 -39 164 -43 203 -23 214 12 7 17 24 18 58 1 26 -1 52 -4 57 -9 15 -9
55 0 50 10 -6 10 22 2 66 -5 22 -9 28 -15 18 -14 -23 -32 6 -24 41 7 32 20 40
28 19 7 -18 -2 123 -9 145 -4 11 -12 16 -21 13 -8 -3 -26 -6 -39 -6 -14 0 -22
-4 -19 -10 3 -5 1 -10 -4 -10 -12 0 -37 -19 -83 -63 l-29 -27 7 35 c9 50 -7
65 -64 61 l-47 -2 -20 -66 c-17 -55 -23 -65 -37 -57 -9 5 -36 8 -61 6 -25 -1
-43 1 -41 5 3 5 12 8 20 8 18 0 46 25 37 34 -4 3 -15 6 -26 6 -19 0 -20 1 -2
20 18 20 17 20 -7 20 -14 0 -29 7 -32 16 -3 8 -2 12 4 9 6 -3 7 1 4 9 -3 9
-14 16 -23 17 -9 0 -4 5 12 11 38 14 34 25 -13 38 -45 12 -48 17 -22 36 16 13
16 13 -1 14 -15 0 -17 7 -12 53 3 33 11 57 23 65 9 7 16 19 14 26 -1 7 9 23
23 36 15 14 25 34 25 52 0 24 -6 32 -37 44 -31 14 -38 14 -47 2 -14 -17 -161
-25 -171 -8 -3 5 -12 7 -18 3 -7 -4 -5 2 3 12 8 10 10 16 3 12 -18 -11 -65 3
-59 18 2 7 -1 18 -7 24 -8 8 -8 11 2 11 7 0 10 4 7 9 -8 13 39 41 67 41 29 0
88 20 103 35 12 12 5 40 -11 40 -5 1 -32 5 -59 9 -33 6 -55 5 -68 -3 -12 -8
-18 -8 -18 0 0 6 -5 7 -12 2 -7 -4 -20 -8 -28 -10 -8 -1 -27 -4 -42 -7 -16 -3
-28 -2 -28 3 0 16 -122 33 -153 22 -39 -15 -44 -14 -50 9 -3 11 -12 20 -21 20
-10 0 -13 -6 -10 -15 7 -16 -19 -17 -44 -1 -7 4 -19 3 -26 -3 -7 -6 -16 -8
-19 -4 -4 3 -7 1 -7 -5 0 -6 8 -13 17 -15 17 -4 17 -5 1 -6 -10 0 -18 -7 -18
-15 0 -8 -3 -16 -7 -19 -5 -2 -3 -2 4 -1 6 2 17 -3 23 -11 8 -10 7 -14 -7 -18
-15 -4 -14 -5 4 -6 38 -2 37 -21 -1 -21 -42 0 -45 -11 -11 -38 27 -22 33 -37
11 -29 -19 8 -42 -19 -24 -27 7 -3 4 -4 -7 -1 -11 2 -27 0 -35 -5 -12 -8 -11
-10 8 -10 13 0 22 -6 22 -15 0 -17 -16 -20 -25 -5 -3 5 -12 7 -20 4 -8 -3 -19
-3 -26 1 -13 8 31 50 62 60 17 6 27 25 13 25 -13 0 -64 -35 -64 -44 0 -5 -9
-1 -21 10 -17 16 -22 16 -30 4 -8 -12 -10 -10 -6 9 5 21 3 23 -22 18 -25 -5
-27 -4 -28 35 -1 23 -6 45 -12 51 -5 5 -7 16 -4 23 3 9 -1 14 -12 14 -12 0
-15 5 -9 23 4 12 12 25 18 29 6 5 2 8 -11 8 -14 0 -23 6 -23 15 0 8 -4 15 -9
15 -5 0 -17 3 -27 7 -13 5 -16 3 -11 -10 5 -13 1 -17 -21 -17 -21 0 -24 2 -12
11 18 12 -38 6 -155 -16 -106 -20 -118 -24 -68 -22 23 1 45 -2 49 -6 4 -4 -13
-7 -39 -7 -25 0 -48 -4 -51 -9 -3 -5 -29 -11 -58 -14 -29 -3 -64 -8 -78 -11
-14 -4 -36 -8 -50 -10 -14 -2 -38 -7 -54 -12 -21 -5 -27 -4 -22 5 4 6 3 11 -3
11 -5 0 -13 -5 -16 -10 -3 -6 -17 -7 -31 -4 -13 3 -24 2 -24 -4 0 -17 -82 -29
-235 -35 -39 -2 -76 -6 -82 -10 -16 -10 -103 -6 -109 5 -3 4 -13 3 -22 -3 -13
-8 -27 -7 -55 4 -20 9 -37 12 -37 6 0 -5 -9 -9 -21 -9 -11 0 -18 -4 -14 -9 7
-12 -26 -31 -52 -31 -10 0 -31 -7 -47 -15 -15 -8 -46 -15 -67 -15 -26 0 -42
-5 -45 -15 -3 -8 -14 -17 -25 -20 -11 -4 -17 -9 -15 -13 2 -4 -2 -13 -10 -20
-8 -7 -14 -8 -14 -3 0 6 -11 -1 -25 -14 -13 -14 -30 -25 -37 -25 -9 0 -9 -3 2
-10 8 -5 11 -10 5 -10 -5 0 -17 5 -25 10 -8 5 -10 10 -4 10 6 0 14 20 17 45 2
25 11 54 19 63 23 26 30 78 13 92 -12 10 -26 7 -70 -14 -30 -15 -57 -31 -60
-36 -3 -5 -29 -20 -58 -34 -45 -21 -56 -32 -74 -73 -21 -48 -71 -185 -93 -256
-7 -21 -14 -36 -17 -34 -2 3 17 68 42 146 47 142 57 229 28 238 -14 5 -125
-131 -155 -190 -11 -23 -29 -64 -39 -92 l-18 -50 0 37 c-1 20 4 48 10 61 8 19
8 30 -1 43 -10 16 -11 16 -6 2 3 -10 -2 -21 -11 -26 -10 -6 -17 -24 -18 -47
-1 -24 -10 -46 -25 -62 -14 -15 -25 -39 -27 -60 -3 -40 -13 -59 -13 -25 0 12
-5 22 -10 22 -19 0 -49 -63 -65 -135 -19 -86 -36 -138 -42 -132 -6 7 53 227
93 341 19 55 34 111 34 125 0 24 -1 24 -26 -10 -48 -64 -121 -223 -168 -364
-98 -299 -115 -356 -141 -471 -14 -65 -33 -181 -41 -258 -8 -78 -19 -157 -24
-176 -5 -19 -10 -53 -11 -75 -1 -22 -9 -47 -16 -57 -11 -12 -13 -29 -7 -65 4
-26 7 -88 7 -138 -1 -52 5 -112 13 -143 8 -29 12 -58 8 -64 -4 -6 -3 -8 3 -5
12 7 11 -42 -1 -61 -4 -7 -5 -15 -3 -19 3 -5 8 -35 11 -67 7 -60 7 -60 -14
-41 -18 16 -20 31 -21 129 -1 153 -31 442 -47 458 -4 3 -456 9 -1004 13 l-998
8 0 -752 0 -753 38 2 c61 3 72 1 72 -14 0 -10 -17 -17 -55 -21 l-55 -7 0 -469
c0 -367 3 -470 13 -473 6 -2 41 -11 77 -19 45 -11 56 -16 35 -17 l-30 -1 30
-14 c27 -12 28 -13 8 -14 -13 -1 -23 -5 -23 -11 0 -11 -49 -14 -74 -4 -9 3
-14 10 -11 14 3 4 -2 10 -10 14 -13 5 -15 -11 -15 -105 l0 -111 68 8 c37 4
103 8 146 8 54 1 81 5 84 14 4 14 32 16 32 2 0 -5 17 -10 38 -10 47 0 67 -16
46 -38 -8 -8 -12 -17 -9 -20 3 -4 9 -1 14 6 5 8 43 12 119 13 75 1 110 5 105
12 -4 6 0 8 10 4 9 -3 43 -1 76 5 67 13 80 33 39 60 -19 13 -20 15 -5 21 12 4
25 -2 38 -17 12 -13 26 -23 32 -21 42 11 56 19 60 37 4 14 0 22 -14 25 -23 6
-15 23 11 23 24 0 70 -21 70 -32 0 -4 -11 -8 -25 -8 -14 0 -29 -8 -35 -20 -9
-17 -7 -24 12 -40 20 -17 35 -19 113 -16 80 3 87 2 60 -9 -17 -7 -59 -12 -99
-10 -39 1 -82 -1 -96 -6 -19 -5 -12 -8 30 -8 72 -2 387 -9 423 -10 16 -1 27
-7 27 -15 0 -8 8 -16 18 -19 9 -2 -251 -4 -578 -3 -327 0 -643 0 -703 -2
l-107 -3 0 -255 0 -254 1345 0 1345 0 0 53 c0 50 4 71 36 186 l15 53 24 -22
c23 -22 23 -23 8 -73 -8 -29 -23 -70 -33 -92 -9 -22 -20 -55 -23 -72 l-6 -33
1463 0 c1162 0 1465 3 1469 13 4 9 6 9 6 0 1 -10 50 -13 211 -13 162 0 210 3
209 13 -2 27 -34 112 -42 107 -10 -7 -53 66 -73 125 -9 28 -20 54 -25 59 -14
16 -11 24 15 41 23 16 28 15 83 -16 71 -39 92 -57 106 -89 10 -24 11 -24 16
15 4 25 9 35 14 28 13 -20 57 -16 57 5 1 9 7 1 14 -18 8 -19 23 -58 34 -86 12
-28 26 -81 33 -118 l11 -66 6469 0 6469 0 0 1100 0 1100 -32 0 c-51 0 -76 10
-94 37 -9 14 -11 22 -5 19 7 -5 9 -1 5 8 -3 9 -11 16 -16 16 -16 0 -37 32 -38
57 0 12 -6 23 -12 26 -32 11 12 22 98 25 l94 4 0 144 0 144 -272 1 c-365 2
-589 6 -594 12 -3 3 -8 36 -11 75 l-6 70 89 6 c142 10 517 23 662 25 l132 1 0
147 0 146 -187 -7 c-104 -3 -297 -11 -431 -17 -142 -7 -247 -8 -252 -3 -4 5
-10 45 -12 89 l-3 80 113 10 c128 11 139 25 20 25 -83 0 -105 13 -77 46 13 16
-3 16 329 -7 69 -4 209 -8 313 -8 l187 1 0 44 0 45 -32 -6 c-75 -13 -169 -21
-174 -14 -4 8 34 15 139 25 l67 6 0 90 0 89 -52 -5 c-93 -11 -681 -56 -758
-58 l-75 -3 -3 83 c-2 64 -6 82 -17 82 -11 0 -15 11 -15 39 0 48 20 68 49 49
17 -10 25 -10 42 0 11 7 40 12 64 11 26 -2 53 4 68 14 14 9 28 13 32 9 3 -4
21 -12 38 -18 32 -11 32 -12 7 -17 -14 -3 -41 -8 -61 -12 -21 -3 -43 -13 -50
-22 -12 -15 -12 -16 6 -8 69 28 131 37 200 28 38 -6 79 -7 91 -3 49 19 259 42
318 35 35 -3 75 -3 89 0 l27 7 0 135 0 135 -23 -5 c-57 -15 -215 -38 -347 -51
-80 -8 -201 -22 -270 -30 -69 -8 -152 -16 -185 -18 l-60 -3 -5 70 c-6 83 -2
125 14 130 6 2 27 6 47 9 27 5 39 13 43 29 6 21 7 21 20 4 21 -28 48 -26 591
39 197 23 175 2 175 171 l0 145 -27 -6 c-67 -13 -330 -56 -463 -76 -80 -12
-171 -28 -204 -36 -32 -8 -90 -16 -130 -17 l-71 -2 4 90 c2 53 8 93 14 97 7 4
37 10 67 13 49 5 275 40 683 108 l127 21 0 143 c0 79 -1 143 -2 143 -2 0 -59
-12 -128 -26 -69 -14 -165 -32 -215 -40 -80 -12 -135 -24 -401 -80 -39 -9 -87
-14 -105 -12 l-34 3 3 80 c2 44 5 82 8 86 2 3 24 9 49 12 55 8 105 32 105 52
0 16 35 30 50 20 6 -4 8 -11 5 -16 -9 -14 30 -11 135 11 52 10 185 37 295 60
110 22 208 43 218 46 15 5 17 20 17 140 l0 134 -37 0 c-64 0 -440 -93 -497
-122 -10 -6 -44 -12 -74 -14 -29 -2 -60 -8 -68 -14 -7 -7 -17 -9 -23 -6 -5 3
-42 -1 -82 -9 -40 -9 -79 -13 -86 -10 -10 3 -13 25 -11 87 3 79 4 82 33 98 16
9 40 14 52 12 13 -2 29 0 36 6 6 5 35 13 62 17 28 3 59 12 70 19 11 7 32 16
47 20 16 3 27 10 27 14 -1 4 -1 15 0 26 1 18 18 18 65 0 12 -5 16 0 16 18 0
44 22 78 53 78 15 0 27 -5 27 -10 0 -6 -6 -10 -12 -9 -29 5 -44 -12 -40 -42 3
-20 0 -34 -9 -40 -25 -16 16 -10 118 16 108 28 178 58 187 80 3 9 0 12 -10 8
-8 -3 -14 1 -14 11 0 9 5 16 11 16 6 0 24 14 39 30 28 30 80 42 80 19 0 -6 -7
-9 -15 -5 -8 3 -15 1 -15 -5 0 -5 -14 -24 -32 -40 -27 -28 -28 -30 -8 -24 33
10 17 -10 -20 -25 -54 -22 -31 -28 48 -11 72 15 77 18 80 44 4 32 5 31 -42 12
-48 -20 -46 -12 4 16 42 24 48 34 28 43 -10 5 -10 7 0 12 10 4 12 47 12 180
-2 160 -10 211 -26 149 -3 -13 -15 -27 -25 -30 -22 -7 -25 -21 -6 -28 8 -3 6
-10 -7 -26 -17 -19 -18 -27 -9 -62 6 -22 7 -42 2 -44 -4 -3 -7 -13 -6 -23 1
-25 -34 -75 -46 -63 -5 5 -12 30 -14 55 -3 25 -9 43 -14 41 -4 -3 -13 4 -19
15 -7 13 -7 20 0 20 5 0 10 -6 11 -12 0 -7 5 -2 10 11 5 13 15 21 22 18 8 -3
19 4 25 14 10 15 10 21 -1 25 -19 7 -21 69 -2 84 12 10 19 10 27 2 17 -17 28
-15 28 7 0 11 11 28 25 39 17 14 25 30 25 52 0 27 -3 30 -14 21 -10 -9 -15 -8
-18 1 -8 21 2 37 18 31 12 -5 15 4 13 50 -2 41 -6 54 -16 50 -7 -3 -13 -13
-13 -23 0 -30 -19 -33 -30 -5 -5 14 -14 24 -19 20 -5 -3 -13 0 -17 6 -5 9 0
10 14 7 25 -7 30 9 7 18 -8 4 -15 12 -15 19 0 15 -38 27 -46 14 -10 -17 -34
-9 -34 11 0 11 -4 20 -10 20 -14 0 -13 -33 2 -48 9 -9 8 -12 -5 -12 -9 0 -19
-11 -23 -25 -4 -14 -9 -24 -11 -21 -3 3 3 45 12 94 14 73 21 89 34 86 26 -7
54 67 54 143 0 58 1 64 18 60 11 -3 21 -1 24 4 8 12 48 5 53 -9 2 -7 8 -10 13
-6 5 3 9 61 9 130 l0 124 -30 0 c-27 0 -30 3 -26 26 6 29 16 45 16 25 0 -7 7
-11 16 -9 25 5 26 86 2 99 -14 8 -16 14 -8 28 6 11 6 30 0 50 -5 17 -6 31 -2
31 4 0 13 14 21 31 13 29 11 79 -4 139 -5 19 -4 22 4 10 8 -11 11 1 10 50 0
36 -3 59 -6 53 -2 -7 -13 -13 -24 -13 -10 0 -18 -3 -18 -7 1 -5 1 -17 0 -28
-2 -19 -3 -19 -13 3 -6 12 -17 22 -25 22 -17 0 -16 4 3 41 11 22 20 29 32 24
9 -4 22 -7 27 -8 6 -1 13 -6 17 -12 4 -5 8 13 8 42 0 32 -5 53 -12 56 -10 4
-10 7 0 18 14 16 17 103 2 94 -5 -3 -10 -1 -10 4 0 6 5 11 10 11 6 0 10 9 10
20 0 22 -15 27 -24 8 -3 -10 -9 -8 -19 5 -8 9 -19 17 -25 17 -5 0 -13 8 -16
17 -8 19 15 37 26 20 11 -18 19 -3 21 44 1 31 7 46 20 51 13 6 17 19 17 58 0
28 -5 60 -10 71 -7 12 -7 19 -1 19 7 0 10 45 10 115 0 71 -4 113 -9 110 -6 -4
-10 -1 -10 4 0 6 5 11 10 11 6 0 10 31 10 73 0 63 -3 74 -21 85 l-21 14 21 14
c21 15 21 19 21 455 l0 439 -1502 -1 c-827 -1 -1495 -3 -1485 -6 16 -4 15 -7
-7 -24 -31 -25 -36 -24 -36 6 0 21 -5 25 -30 25 -30 0 -30 -1 -30 -55 0 -40
-4 -55 -13 -55 -8 0 -32 -12 -53 -27 -41 -29 -71 -47 -114 -70 -29 -15 -70
-17 -70 -4 0 5 -13 16 -29 24 -27 14 -32 13 -60 -7 -32 -22 -43 -53 -16 -42 8
3 15 1 15 -4 0 -6 8 -10 18 -10 14 0 15 -2 2 -10 -8 -5 -23 -7 -32 -4 -13 4
-18 0 -18 -14 0 -16 -7 -19 -45 -17 -33 1 -50 -3 -62 -17 -9 -10 -24 -18 -35
-18 -10 0 -18 -6 -18 -14 0 -12 -34 -30 -52 -27 -5 1 -8 -4 -8 -10 0 -5 -5 -7
-11 -3 -8 4 -7 9 2 15 7 4 10 12 5 16 -4 4 -14 0 -21 -10 -9 -12 -15 -15 -20
-7 -9 15 -66 3 -82 -17 -7 -9 -19 -12 -31 -9 -11 4 -23 2 -27 -4 -3 -5 -15
-10 -25 -10 -10 0 -20 -4 -22 -9 -3 -9 -30 -16 -104 -28 -19 -3 -36 1 -45 9
-16 16 -59 21 -59 7 0 -5 8 -9 18 -10 14 0 14 -2 -3 -8 -11 -5 -21 -4 -23 0
-2 5 -11 9 -20 9 -15 0 -15 2 -2 10 9 6 10 10 3 10 -6 0 -14 -4 -17 -9 -8 -12
-56 -20 -56 -10 0 5 -23 6 -51 3 -41 -4 -54 -1 -65 13 -13 17 -14 17 -19 -2
-6 -19 -14 -20 -128 -18 -148 2 -491 13 -567 18 -219 16 -487 31 -690 40 -74
3 -169 8 -210 10 -41 3 -131 7 -200 10 -353 16 -1084 56 -1088 60 -2 2 -6 68
-7 147 -2 79 -4 146 -5 151 0 4 -9 7 -20 7 -19 0 -20 -7 -21 -102 0 -57 0
-122 1 -144 1 -23 -4 -45 -10 -49 -6 -4 -118 -2 -248 4 -505 24 -649 31 -705
37 l-59 6 6 37 c5 33 5 34 -6 11 -9 -21 -12 -22 -15 -7 -4 14 -8 16 -19 6 -9
-7 -14 -8 -14 -1 0 6 5 14 11 18 6 3 22 32 36 63 14 31 30 63 37 71 20 23 27
50 13 50 -7 0 -47 -55 -90 -122z m5780 72 c7 0 10 -6 7 -14 -3 -8 2 -16 13
-19 11 -3 6 -5 -12 -6 -21 -1 -26 -4 -16 -10 9 -6 -2 -11 -37 -16 -37 -5 -52
-12 -60 -28 -7 -14 -11 -17 -11 -7 -1 12 -3 12 -10 2 -4 -8 -24 -14 -43 -15
-20 -2 -44 -9 -54 -17 -16 -14 -17 -13 -11 3 8 21 -6 22 -23 2 -11 -14 -15
-14 -30 2 -10 10 -16 21 -13 26 2 4 -3 7 -11 7 -9 0 -16 -7 -16 -15 0 -8 -4
-15 -10 -15 -5 0 -10 5 -10 10 0 7 -7 7 -21 0 -11 -7 -27 -9 -35 -6 -11 4 6
23 58 64 40 32 81 63 91 68 11 6 55 6 130 -3 61 -6 117 -12 124 -13z m-4822
-391 c-6 -36 -5 -41 14 -46 19 -5 20 -7 6 -17 -14 -10 -13 -15 9 -45 21 -28
24 -41 19 -77 -5 -37 -3 -44 11 -44 13 0 16 -5 10 -22 -4 -13 -9 -25 -13 -28
-12 -10 -11 -40 1 -40 10 0 13 -14 12 -47 0 -27 3 -53 8 -60 5 -6 5 -25 0 -45
l-8 -33 -70 -3 c-38 -1 -150 4 -249 12 -99 7 -153 14 -120 15 43 1 56 4 45 11
-8 5 -10 10 -4 10 6 0 9 13 6 30 -3 18 0 30 7 30 6 0 11 7 11 15 0 8 4 14 9
13 5 -2 10 2 11 7 1 6 11 23 22 38 13 17 18 38 15 53 -3 17 2 32 16 44 18 17
43 19 33 2 -2 -4 7 -8 20 -8 l25 -2 -28 26 c-15 14 -21 23 -12 20 13 -5 18 1
23 25 4 19 2 33 -4 35 -5 2 -8 8 -4 13 3 5 -2 9 -10 9 -9 0 -16 5 -16 11 0 6
9 8 22 4 17 -6 20 -4 15 9 -4 10 -1 16 8 16 8 0 14 -5 13 -12 -2 -6 4 -13 13
-15 27 -6 11 57 -17 67 -33 13 -30 21 4 10 15 -4 39 -11 55 -14 25 -6 27 -5
21 19 -10 40 1 55 42 55 l36 0 -7 -41z m7283 -535 c15 -9 40 -34 55 -56 28
-40 30 -61 3 -39 -9 8 -16 8 -20 2 -4 -6 -13 -8 -21 -4 -13 4 -21 -9 -12 -20
1 -2 -4 -11 -12 -20 -7 -10 -11 -17 -7 -17 9 0 -19 -49 -47 -82 -22 -27 -23
-27 -39 -9 -9 11 -14 22 -11 25 3 3 -6 8 -20 11 -32 8 -53 30 -38 40 6 3 19 2
29 -4 14 -7 21 -5 30 10 7 10 12 26 12 36 0 9 3 13 7 10 7 -8 33 11 33 24 0 5
-9 9 -20 9 -23 0 -26 13 -6 29 8 6 19 25 26 41 14 34 22 36 58 14z m17 -334
c3 -5 15 -10 27 -10 18 0 19 -4 13 -36 -4 -24 -3 -34 4 -29 6 3 11 -1 11 -10
0 -11 -5 -15 -14 -12 -10 4 -22 -8 -35 -37 -26 -53 -26 -64 -1 -41 11 10 23
16 26 12 8 -7 -14 -47 -26 -47 -6 0 -20 -10 -31 -21 -18 -18 -20 -25 -10 -40
6 -10 11 -26 11 -34 0 -8 6 -15 14 -15 17 0 29 -111 12 -122 -7 -5 -7 -8 2 -8
8 0 16 9 19 19 6 22 29 35 38 20 9 -13 -4 -51 -15 -44 -15 9 -22 -15 -10 -30
21 -25 6 -41 -16 -18 -29 32 -58 75 -66 98 -5 17 -6 15 -7 -8 -1 -20 -6 -27
-18 -25 -13 2 -17 -6 -18 -38 -1 -48 -48 -117 -59 -88 -3 9 -3 20 0 26 3 5 -4
20 -16 33 -29 31 -21 62 11 44 22 -11 22 -11 16 48 -4 33 -4 63 0 67 4 3 17
-1 30 -9 23 -15 23 -15 23 24 0 22 -4 43 -10 46 -5 3 -10 13 -10 21 0 15 35
55 47 53 4 0 13 16 22 37 11 28 12 39 3 42 -16 5 -15 32 1 32 18 0 43 29 52
60 4 14 4 22 0 18 -9 -9 -45 9 -45 22 0 13 17 13 25 0z m-171 -636 c3 -9 12
-14 20 -11 11 4 17 -11 26 -60 11 -65 11 -66 -17 -93 -17 -16 -36 -53 -48 -91
l-19 -64 -7 60 c-7 55 -11 171 -10 237 1 24 9 31 42 37 4 0 10 -6 13 -15z
m111 -242 c-16 -38 -24 -87 -15 -90 14 -5 12 -21 -5 -38 -19 -19 -19 -34 0
-34 9 0 12 -6 9 -15 -5 -11 -2 -13 11 -9 13 5 16 2 13 -17 -2 -18 -11 -25 -33
-29 -27 -5 -30 -8 -27 -38 5 -52 -41 -41 -53 13 -5 21 -4 26 3 16 8 -11 14
-10 32 7 13 12 26 19 31 17 7 -5 6 4 -6 43 -9 27 -25 29 -25 2 0 -28 -14 -25
-44 11 -29 34 -34 70 -12 88 8 7 12 21 9 34 -5 20 -4 20 18 -5 24 -28 49 -37
49 -19 0 6 -4 13 -10 16 -10 6 -14 48 -5 57 3 3 19 5 36 6 25 1 29 -2 24 -16z
m-532 -550 c-4 -27 -1 -42 11 -51 20 -17 21 -40 2 -47 -26 -10 -44 18 -38 58
3 25 1 38 -7 38 -13 0 -15 -69 -1 -90 6 -10 4 -20 -6 -31 -22 -24 2 -36 27
-13 10 9 19 12 19 6 0 -6 -4 -14 -10 -17 -14 -9 -13 -58 2 -73 9 -9 8 -12 -4
-12 -9 0 -18 9 -21 21 -3 11 -15 23 -26 26 -12 3 -22 9 -22 14 -2 11 -4 19
-11 39 -32 91 -34 110 -13 110 7 0 18 6 22 13 4 6 17 17 28 23 11 7 19 19 19
28 -1 12 2 13 16 6 14 -8 17 -18 13 -48z m191 -23 c12 -23 12 -30 2 -26 -7 3
-20 -7 -30 -23 -16 -28 -16 -29 6 -32 24 -3 28 -19 31 -112 1 -45 -3 -61 -17
-71 -9 -7 -16 -19 -15 -27 1 -7 -3 -25 -9 -40 -9 -21 -18 -27 -37 -26 -30 3
-33 14 -5 21 12 3 20 14 20 25 0 11 5 22 11 24 5 2 13 22 16 45 4 31 1 46 -11
58 -9 9 -16 30 -16 46 0 27 -3 30 -22 23 -13 -4 -29 -14 -36 -23 -11 -14 -12
-14 -10 5 2 11 -3 28 -11 37 -7 10 -9 17 -3 17 6 0 13 -6 15 -12 3 -7 6 -1 6
15 1 15 10 36 20 46 19 19 20 19 26 2 4 -13 12 -17 25 -14 21 6 34 29 20 38
-13 8 -13 35 -1 35 5 0 16 -14 25 -31z m-2636 -351 c2 -89 7 -165 12 -168 15
-9 -5 -64 -27 -74 -21 -10 -21 -9 -22 -143 0 -43 -5 -58 -26 -80 -14 -16 -28
-36 -31 -45 -3 -10 -9 -18 -13 -18 -5 0 -14 -13 -21 -30 -7 -16 -15 -30 -19
-30 -16 0 -111 -138 -111 -161 0 -13 -7 -45 -14 -71 -8 -26 -18 -78 -21 -116
l-7 -69 28 -6 c15 -3 111 0 213 5 216 12 505 5 746 -18 185 -18 258 -37 263
-72 5 -31 -44 -51 -201 -83 -76 -15 -141 -30 -144 -33 -3 -3 -9 -27 -14 -53
-5 -26 -15 -52 -22 -58 -6 -5 -21 -27 -31 -47 -11 -21 -23 -38 -28 -38 -4 0
-8 -7 -8 -15 0 -9 -19 -35 -42 -59 -64 -65 -85 -92 -92 -114 -4 -11 -13 -23
-21 -26 -8 -3 -15 -15 -15 -27 0 -37 -23 -99 -36 -99 -8 0 -11 -6 -8 -15 4 -8
1 -15 -6 -15 -7 0 -10 -6 -7 -14 6 -14 -27 -56 -43 -56 -13 0 -13 17 0 22 14
5 0 48 -16 48 -9 0 -14 12 -14 33 -1 30 -3 57 -16 154 -3 24 -10 45 -15 49 -5
3 -7 14 -4 24 3 11 0 20 -10 24 -8 3 -15 11 -15 18 0 7 -9 30 -20 51 -11 20
-20 44 -20 52 0 8 -4 15 -9 15 -5 0 -12 11 -15 25 -11 42 -54 72 -120 84 -34
6 -144 15 -246 21 -278 16 -421 41 -434 77 -4 10 2 29 16 47 21 29 23 42 26
191 3 187 10 222 63 333 63 130 182 239 338 309 31 13 72 27 91 29 19 3 36 9
38 14 2 5 10 6 18 3 8 -3 14 0 14 6 0 6 6 8 13 6 9 -4 11 31 6 162 -3 93 -4
173 -2 179 6 16 43 33 73 33 l26 1 2 -162z m2707 57 c1 -81 36 -142 75 -130
26 8 35 -13 15 -35 -9 -10 -14 -23 -11 -29 8 -12 -37 -26 -58 -18 -8 3 -20 -1
-26 -8 -7 -8 -22 -13 -34 -11 -17 2 -22 11 -24 43 -2 33 2 46 22 67 20 19 26
21 26 9 0 -9 3 -14 6 -10 3 3 3 15 -1 26 -7 24 -35 29 -35 6 0 -8 -4 -15 -9
-15 -10 0 -2 87 10 112 5 9 9 26 9 38 0 15 5 20 18 18 14 -3 17 -14 17 -63z
m-255 -77 c0 -9 3 -9 11 -1 11 11 59 -5 59 -20 0 -5 9 -5 20 -2 11 3 20 2 20
-4 0 -5 -9 -12 -20 -16 -11 -3 -19 -9 -18 -13 3 -13 -34 -92 -43 -92 -5 0 -8
-3 -8 -7 4 -24 -7 -32 -66 -48 -36 -11 -65 -24 -65 -31 0 -16 -41 -25 -57 -12
-15 12 -18 48 -3 48 6 0 10 -6 10 -14 0 -26 20 -28 30 -4 13 30 33 61 44 69 5
4 6 23 2 43 -8 41 -40 51 -49 14 -5 -17 -9 -19 -20 -10 -19 16 -29 4 -16 -20
14 -27 -3 -45 -21 -23 -8 10 -10 19 -4 23 5 4 9 21 9 37 0 20 5 29 13 27 9 -2
12 4 8 16 -10 30 19 48 50 31 18 -9 27 -10 32 -2 4 6 21 13 37 16 17 2 33 5
38 6 4 0 7 -4 7 -11z m-380 -612 c0 -133 4 -236 10 -242 5 -5 6 -25 2 -44 -4
-19 -5 -118 -1 -220 4 -102 10 -382 14 -622 l8 -438 48 0 49 0 0 -68 c0 -77
-9 -92 -56 -92 -27 0 -32 -4 -38 -31 -8 -40 -6 -214 3 -254 6 -28 7 -28 13 -7
4 15 14 22 30 22 38 0 48 -19 48 -91 0 -75 -13 -95 -55 -85 -19 5 -25 13 -26
34 l-1 27 -8 -30 c-4 -16 -7 -136 -6 -265 l2 -235 137 -3 c92 -2 137 -6 137
-14 0 -7 -44 -9 -152 -4 -248 10 -757 23 -979 25 l-97 1 15 41 c31 92 38 99
96 99 l52 0 22 51 c30 68 49 61 45 -15 -2 -43 1 -57 10 -54 7 3 13 16 14 29 1
23 10 76 20 112 8 27 26 8 20 -20 -8 -29 0 -44 18 -37 18 7 16 98 -2 116 -9 9
-12 8 -12 -7 0 -14 -3 -16 -11 -8 -8 8 -8 40 0 114 14 142 24 164 80 183 31
10 51 12 63 5 20 -11 163 -2 190 12 9 5 50 16 90 24 40 8 90 23 111 32 l38 16
-4 587 c-4 415 -8 593 -16 609 -9 16 -9 26 1 44 18 30 14 764 -4 813 -9 25 -9
39 0 56 6 13 12 32 14 43 3 18 44 37 61 28 4 -2 7 -109 7 -237z m596 -832 c76
-9 141 -18 143 -20 5 -5 -342 -9 -407 -5 -23 2 -65 -3 -92 -10 -53 -14 -106
-1 -97 24 3 11 54 16 268 25 25 1 109 -5 185 -14z m-16006 -894 c0 -58 -42
-207 -80 -285 -47 -96 -83 -138 -132 -154 -51 -17 -93 -63 -139 -155 -21 -43
-39 -74 -39 -69 0 22 40 123 83 213 52 106 99 168 169 224 52 40 73 80 102
189 19 70 36 88 36 37z m1110 -389 c0 -5 -4 -11 -9 -13 -5 -1 -13 -15 -16 -31
-6 -22 -4 -26 9 -21 9 3 16 10 16 16 0 5 5 6 10 3 6 -3 10 -14 10 -24 0 -10
11 -26 25 -35 31 -20 39 -20 31 0 -4 11 -1 14 12 12 9 -2 17 -10 17 -18 0 -8
10 -16 22 -18 14 -2 20 -8 16 -18 -3 -8 0 -14 6 -14 6 0 8 -11 5 -29 -5 -25
-3 -30 17 -33 18 -2 24 -9 23 -25 0 -13 5 -23 13 -23 7 0 13 -5 13 -11 0 -5
-4 -7 -10 -4 -5 3 -10 2 -10 -4 0 -5 6 -12 13 -14 7 -3 4 -6 -7 -6 -13 -1 -17
-7 -13 -20 4 -17 1 -17 -36 -9 -43 9 -60 3 -37 -13 12 -8 10 -10 -7 -6 -13 3
-26 1 -29 -4 -7 -12 -34 -12 -34 1 0 5 8 7 18 4 14 -5 14 -3 -2 10 -11 9 -23
16 -26 16 -3 0 -5 22 -4 49 1 35 -2 48 -11 45 -7 -3 -15 4 -18 15 -4 16 0 21
16 22 17 1 18 2 5 6 -10 2 -18 11 -18 19 0 8 -5 14 -11 14 -5 0 -7 5 -4 11 4
6 13 8 20 5 7 -2 16 1 18 8 3 8 -4 11 -24 8 -22 -3 -29 0 -29 12 0 9 -6 16
-12 17 -10 0 -10 2 -1 6 10 3 10 8 -1 19 -11 11 -12 21 -3 49 9 31 37 50 37
26z m-1506 -516 c3 -82 13 -181 21 -220 9 -38 20 -95 25 -125 5 -30 12 -71 15
-90 5 -25 4 -31 -4 -20 -8 12 -12 9 -21 -15 -6 -16 -12 -45 -14 -64 -10 -100
-18 -180 -21 -211 -2 -19 3 -66 11 -104 8 -38 13 -71 11 -73 -10 -10 -50 174
-55 250 -5 92 5 165 40 285 l21 73 -21 117 c-33 179 -35 199 -27 279 4 41 8
73 10 71 1 -2 5 -70 9 -153z m1621 124 c-4 -6 3 -20 15 -31 16 -15 29 -19 52
-14 26 5 29 4 18 -9 -11 -13 -8 -15 17 -15 20 0 30 -5 30 -15 0 -8 -4 -15 -9
-15 -15 0 -8 -21 10 -27 25 -9 62 -44 62 -60 0 -7 7 -13 16 -13 9 0 14 -6 12
-12 -3 -7 11 -28 29 -46 19 -18 31 -37 28 -42 -3 -6 -1 -10 5 -10 7 0 10 -7 6
-15 -3 -8 -2 -15 2 -15 4 0 13 -13 20 -29 16 -35 92 -123 189 -216 40 -39 73
-74 73 -78 0 -5 13 -25 30 -45 16 -20 52 -84 80 -141 49 -99 58 -111 198 -250
125 -123 316 -351 345 -409 5 -9 -45 37 -110 103 -101 104 -265 253 -408 373
-22 18 -94 84 -160 146 -66 62 -138 128 -160 147 -99 85 -220 227 -262 307 -9
17 -20 32 -25 32 -4 0 -8 7 -8 15 0 8 -9 30 -20 50 -11 19 -19 36 -19 38 2 6
-28 65 -49 99 -13 20 -21 42 -17 47 3 6 1 11 -5 11 -6 0 -8 10 -4 24 3 13 1
27 -5 31 -8 4 -6 11 5 22 9 10 13 25 10 38 -3 12 -3 25 1 29 10 10 15 7 8 -5z
m9368 -169 c83 0 148 -2 145 -5 -9 -9 -1059 -4 -1118 5 -32 5 126 7 384 4 242
-2 507 -4 589 -4z m-10743 -530 c14 -11 29 -20 33 -20 31 -1 155 -100 237
-191 142 -155 269 -278 328 -317 28 -19 52 -39 52 -43 0 -5 6 -9 14 -9 7 0 19
-7 26 -15 7 -9 15 -13 18 -10 3 3 10 1 16 -4 6 -4 31 -11 55 -15 24 -4 64 -16
90 -27 73 -32 83 -36 131 -54 57 -21 189 -91 215 -114 25 -23 105 -64 172 -90
100 -39 176 -54 268 -52 86 1 92 -1 146 -34 51 -31 216 -93 389 -146 36 -11
115 -28 175 -39 61 -10 128 -25 150 -34 l40 -15 -75 0 c-41 -1 -119 -8 -172
-16 -86 -13 -112 -13 -220 0 -123 15 -198 26 -293 45 -27 5 -75 14 -105 19
-219 40 -265 52 -485 120 -209 64 -307 98 -450 156 -11 5 -22 9 -25 10 -27 8
-108 55 -126 73 -13 12 -30 22 -39 22 -8 0 -15 5 -15 10 0 6 -6 10 -13 10 -8
0 -24 9 -37 20 -13 11 -27 20 -33 20 -5 0 -20 12 -33 28 -13 15 -24 24 -24 20
0 -5 -8 0 -18 10 -10 9 -28 24 -40 32 -12 8 -22 21 -22 28 0 8 -5 12 -12 10
-6 -2 -28 13 -47 34 -20 21 -39 38 -43 38 -12 0 -48 38 -48 50 0 6 -6 10 -14
10 -7 0 -19 14 -26 30 -7 17 -16 30 -21 30 -5 0 -9 6 -9 13 0 7 -9 23 -20 35
-12 12 -17 22 -13 22 4 0 -1 7 -11 15 -11 8 -16 15 -12 15 4 0 -3 15 -16 32
-12 18 -21 40 -20 49 2 10 -2 20 -8 24 -5 3 -10 19 -10 36 0 16 -9 48 -19 72
-11 23 -22 59 -25 79 -4 20 -12 39 -19 41 -7 3 -1 6 13 6 14 0 36 -8 50 -19z
m3606 -226 c12 -47 -26 -337 -47 -359 -5 -5 -9 28 -9 85 0 53 -8 134 -19 182
l-18 86 36 15 c49 20 50 20 57 -9z m8414 -159 c0 -3 -26 -18 -59 -34 -32 -17
-111 -64 -175 -106 -200 -130 -389 -214 -578 -256 -32 -6 -58 -15 -59 -18 -7
-56 -5 -61 29 -61 47 0 31 -16 -23 -24 -35 -6 -45 -11 -45 -26 0 -25 29 -40
82 -41 l43 -1 -50 -13 c-27 -7 -65 -14 -82 -14 -21 -1 -33 -6 -33 -15 0 -19
83 -27 161 -16 35 5 73 9 84 9 l20 0 -20 -8 c-35 -14 -215 -41 -345 -52 -181
-14 -549 -29 -590 -23 -19 2 -40 1 -46 -3 -7 -5 -14 -77 -18 -200 l-6 -193
175 0 c106 0 174 -4 170 -9 -5 -8 -244 -15 -542 -16 l-92 0 2 -192 c1 -105 -1
-194 -5 -198 -7 -7 -287 47 -368 71 -53 16 -84 49 -56 60 12 5 10 10 -11 28
-17 15 -26 33 -27 54 0 18 -3 32 -6 32 -10 0 -32 44 -37 74 -2 17 -11 55 -18
85 -8 30 -12 58 -9 62 2 4 -2 10 -8 12 -7 3 21 6 62 7 70 1 73 2 45 14 -31 13
-35 23 -15 36 9 6 9 13 1 29 -7 12 -9 26 -6 31 3 5 -4 15 -16 23 -15 11 -17
16 -7 20 10 5 9 9 -4 17 -10 6 -18 20 -18 30 0 10 -4 22 -10 25 -5 3 -10 19
-10 35 0 15 -7 30 -15 34 -8 3 -17 23 -21 45 -5 31 -12 41 -30 45 -46 12 -23
21 99 41 167 27 528 26 772 -2 94 -11 184 -20 200 -19 34 2 34 7 5 78 -22 52
-26 93 -9 104 7 4 8 19 4 38 -6 31 -9 56 -19 178 -5 60 -4 69 13 78 33 17 140
11 264 -15 294 -62 493 -82 662 -65 186 18 250 38 370 115 58 37 111 72 118
79 26 23 53 35 80 35 15 1 27 -1 27 -4z m4313 -575 c21 0 28 -3 19 -9 -20 -12
20 -21 96 -21 69 0 115 -16 91 -31 -8 -5 -57 -8 -110 -8 -115 1 -166 -8 -173
-28 -5 -13 -9 -13 -22 -2 -14 11 -18 10 -30 -6 -21 -29 -18 -76 6 -82 11 -3
20 -9 20 -14 0 -5 7 -9 15 -9 8 0 15 -4 15 -10 0 -5 10 -10 23 -10 12 0 40 -9
62 -20 22 -11 50 -20 63 -20 36 0 102 -22 102 -33 0 -6 -32 -7 -87 -3 -163 14
-277 16 -380 6 -57 -5 -110 -7 -118 -3 -12 4 -15 17 -13 47 3 37 6 42 39 53
20 6 74 15 119 20 57 5 85 13 91 23 18 34 22 57 20 102 -3 42 0 48 21 52 44
10 73 13 86 10 8 -2 28 -4 45 -4z m-12765 -15 c8 -7 10 -62 5 -95 -5 -27 -8
-30 -13 -16 -6 17 -7 17 -23 1 -16 -16 -16 -18 0 -47 11 -17 29 -32 46 -35 26
-5 27 -8 26 -59 -1 -29 -5 -51 -10 -49 -4 3 -9 -1 -12 -7 -3 -7 -8 11 -12 40
-5 37 -11 50 -19 43 -14 -11 -155 -21 -161 -11 -3 4 1 13 9 19 8 6 24 38 36
71 13 34 29 60 36 60 8 0 14 5 14 10 0 6 -5 10 -10 10 -6 0 -8 12 -4 28 12 54
12 55 52 47 20 -4 38 -8 40 -10z m-3908 -190 c0 -8 -9 -15 -21 -15 -11 0 -29
-5 -40 -11 -19 -10 -20 -12 -4 -29 9 -10 18 -26 19 -35 1 -9 8 -20 15 -25 16
-9 8 -26 -18 -39 -12 -7 -26 -5 -44 4 -26 13 -29 12 -60 -18 -17 -17 -31 -33
-29 -34 1 -2 2 -8 2 -14 0 -8 -5 -7 -15 1 -13 11 -14 10 -9 -4 4 -9 3 -16 -2
-15 -20 3 -24 -2 -14 -21 16 -30 44 -24 74 15 15 19 34 35 43 35 10 0 35 12
56 27 22 15 55 29 73 30 l34 2 -25 -27 c-24 -26 -37 -58 -14 -35 9 9 16 9 31
0 15 -10 21 -9 28 3 8 12 10 11 10 -7 0 -13 6 -23 14 -23 9 0 12 -8 8 -27 l-5
-28 -9 27 c-5 15 -18 30 -28 33 -21 7 -69 -13 -72 -29 0 -6 -2 -15 -3 -21 -2
-5 -3 -18 -4 -27 -1 -11 -9 -18 -22 -18 -19 0 -21 -4 -15 -30 7 -38 -16 -41
-59 -6 -24 20 -28 27 -17 37 6 7 12 21 12 32 0 14 -5 17 -22 11 -13 -3 -26
-13 -31 -20 -4 -7 -15 -10 -24 -7 -10 4 -14 2 -10 -5 8 -11 -77 -26 -145 -25
-21 0 -35 -4 -32 -8 8 -14 -10 -10 -34 7 -12 8 -22 10 -22 5 0 -6 5 -11 10
-11 17 0 11 -36 -10 -55 -11 -10 -20 -27 -20 -37 0 -15 -3 -17 -19 -9 -10 6
-42 11 -70 12 -31 1 -56 8 -64 17 -10 13 -8 14 13 8 18 -5 21 -4 11 2 -12 9
-12 13 3 28 12 12 14 19 6 24 -7 4 -2 13 14 24 14 9 28 27 32 41 6 23 24 36
24 16 0 -5 8 -12 17 -15 13 -5 11 0 -6 18 -31 33 -76 45 -135 39 -46 -6 -82 9
-70 28 7 12 70 12 111 0 35 -10 102 14 103 36 0 17 40 37 51 26 6 -6 -1 -19
-16 -33 -27 -25 -35 -51 -10 -30 10 8 15 9 15 2 0 -6 6 -9 14 -6 8 3 17 1 21
-5 3 -6 17 -8 30 -5 19 5 24 1 27 -17 5 -34 23 -33 24 2 2 39 22 53 51 34 29
-19 33 -19 33 3 0 10 5 23 11 29 8 8 5 13 -11 18 -30 10 -20 28 26 45 44 16
88 43 148 90 43 33 66 38 66 15z m575 -78 c6 2 10 -19 10 -49 0 -52 20 -80 27
-36 2 14 9 23 20 22 10 -1 16 3 15 8 -1 6 4 13 11 15 8 3 10 -1 6 -11 -4 -11
-1 -16 10 -16 9 0 25 -6 37 -12 17 -11 22 -10 34 5 15 21 31 6 21 -20 -4 -9
-4 -31 0 -50 5 -27 10 -32 24 -28 10 3 21 1 25 -5 3 -5 22 -10 41 -10 32 0 34
-2 28 -25 -7 -27 4 -32 26 -12 7 6 -3 -9 -23 -34 -20 -25 -47 -70 -60 -100
-24 -53 -42 -163 -26 -153 5 3 19 -2 31 -10 12 -9 42 -16 65 -16 54 0 55 -13
2 -34 -42 -17 -91 -14 -116 6 -8 7 -15 -3 -23 -34 -7 -24 -16 -52 -21 -63 -4
-11 -13 -39 -20 -62 -19 -66 -29 -51 -13 19 28 122 54 210 89 295 19 48 33 88
32 89 -7 7 -169 -155 -164 -164 4 -5 -7 -22 -23 -37 -28 -27 -29 -32 -24 -81
7 -53 -14 -130 -38 -145 -6 -4 -10 -18 -10 -33 0 -14 -4 -26 -9 -26 -5 0 -9 5
-9 11 0 5 -5 7 -10 4 -6 -4 -8 -11 -4 -16 3 -6 0 -9 -7 -8 -19 4 -58 -22 -53
-36 3 -6 -12 -20 -33 -32 l-37 -21 40 -24 c21 -12 41 -23 44 -23 3 -1 20 -9
38 -19 44 -23 60 -15 68 31 3 21 12 47 20 57 13 18 15 18 32 3 16 -15 17 -24
9 -77 -5 -33 -7 -63 -3 -67 12 -13 59 23 175 134 111 106 141 145 120 159 -5
3 -9 2 -9 -3 0 -4 -22 -6 -50 -5 -31 3 -50 9 -50 16 0 19 31 44 65 51 17 4 38
17 47 29 15 18 19 19 28 6 5 -8 10 -13 11 -10 0 3 2 16 3 29 2 13 10 28 20 33
9 5 25 18 35 29 17 19 23 39 34 132 6 44 58 138 84 150 13 5 23 16 23 22 0 25
56 40 190 50 41 3 85 9 98 12 30 7 28 -10 -5 -28 -53 -28 -234 -233 -320 -362
-74 -112 -101 -143 -220 -250 -74 -67 -147 -130 -161 -139 -26 -17 -61 -57
-62 -69 0 -11 124 19 196 47 38 14 94 35 124 45 77 28 246 116 299 156 25 19
56 48 70 65 78 97 196 187 283 217 29 10 56 24 62 33 22 36 -70 157 -122 159
-15 1 -42 1 -59 0 -54 -4 -37 15 24 28 82 16 112 14 171 -14 30 -14 65 -25 78
-25 30 0 80 24 114 55 14 12 39 30 57 40 30 18 33 18 80 -1 33 -13 73 -19 128
-19 54 0 80 -4 80 -12 0 -6 -17 -30 -37 -53 -30 -33 -35 -44 -25 -54 10 -11
17 -10 42 8 25 17 42 21 100 19 79 -3 158 16 223 54 64 37 93 43 131 27 19 -8
45 -14 60 -14 79 0 236 -123 281 -220 11 -25 43 -76 71 -115 60 -84 76 -110
60 -101 -15 10 -14 -6 3 -29 7 -11 24 -51 37 -90 12 -38 26 -72 29 -75 17 -14
88 -192 82 -208 -2 -6 1 -12 6 -12 5 0 12 -9 15 -20 6 -25 -1 -26 -19 -2 -8
10 -13 12 -14 5 0 -7 -5 -13 -11 -13 -5 0 -7 5 -4 10 7 11 -19 42 -28 34 -3
-4 -8 11 -12 32 -3 22 -10 54 -15 72 -10 38 -205 409 -226 432 -12 12 -14 10
-14 -16 0 -26 -4 -30 -27 -29 -16 0 -31 4 -34 8 -3 5 -12 2 -20 -5 -20 -20
-38 -17 -94 17 -82 49 -132 43 -302 -38 -76 -36 -167 -73 -203 -82 -69 -18
-116 -18 -452 5 -229 16 -295 0 -494 -115 -291 -167 -584 -275 -749 -275 -66
0 -155 50 -218 123 -69 80 -108 117 -125 117 -12 0 -11 5 2 25 19 29 33 26
-119 29 -158 4 -175 5 -175 15 0 20 89 29 215 22 l130 -7 68 65 c53 52 64 67
50 72 -20 7 -26 38 -11 56 6 7 27 13 47 13 42 0 77 31 82 71 6 40 -16 59 -53
48 -21 -6 -36 -5 -45 3 -11 9 -16 9 -23 -2 -13 -22 -40 -3 -40 28 0 23 -6 32
-30 42 -16 7 -30 16 -30 21 0 5 1 9 3 9 7 0 79 -39 93 -51 8 -6 17 -9 21 -6 3
4 11 3 17 -2 10 -9 52 -14 87 -12 11 1 21 17 28 48 11 41 10 49 -4 59 -14 11
-14 13 0 28 9 9 25 16 36 16 10 0 19 4 19 10 0 5 16 27 35 49 38 42 43 54 20
45 -17 -7 -21 11 -5 21 6 3 10 17 10 31 0 21 -2 23 -14 12 -7 -7 -11 -20 -9
-28 4 -12 3 -12 -5 -2 -6 9 -18 11 -37 6 -23 -6 -27 -4 -22 9 3 8 0 20 -7 26
-17 15 -29 1 -14 -16 9 -11 9 -17 -3 -25 -11 -7 -11 -11 -1 -15 6 -2 12 -11
12 -19 0 -10 -6 -11 -22 -5 -15 5 -23 17 -23 31 0 13 -6 25 -12 27 -8 3 -13
-4 -13 -17 0 -12 -4 -19 -9 -16 -5 4 -22 -5 -38 -18 -21 -17 -36 -23 -56 -19
-26 5 -28 4 -21 -23 9 -38 11 -39 29 -24 18 15 28 9 19 -13 -3 -9 -15 -18 -27
-20 -12 -2 -4 -4 18 -4 22 1 49 -3 59 -8 17 -7 18 -5 13 18 -4 14 -3 36 2 49
7 21 9 20 13 -14 5 -48 -13 -113 -32 -113 -8 0 -20 -6 -26 -14 -9 -11 -11 -10
-11 5 0 11 4 24 9 30 5 8 2 14 -8 18 -18 7 -33 -8 -35 -34 0 -10 -2 -11 -6 -2
-2 6 -12 12 -20 12 -13 0 -13 3 -3 15 10 12 10 15 -3 15 -8 0 -17 11 -19 24
-4 18 -1 23 10 18 10 -3 13 -1 8 6 -4 7 -16 12 -26 12 -23 0 -33 14 -34 53 -1
21 -7 32 -24 38 -19 7 -23 6 -21 -9 4 -39 -2 -53 -26 -62 -14 -5 -25 -13 -25
-17 -1 -19 -29 -45 -41 -37 -16 9 -69 10 -69 1 0 -4 3 -14 7 -22 9 -24 -7 -32
-22 -11 -8 10 -16 24 -18 30 -3 7 -9 6 -21 -3 -10 -9 -20 -11 -24 -5 -4 5 -16
11 -27 12 -11 2 -24 8 -30 14 -7 6 -1 7 18 3 18 -5 35 -2 51 8 16 11 26 13 34
5 7 -7 20 -7 44 1 36 12 130 71 113 71 -6 0 -17 -6 -24 -12 -11 -11 -13 -10
-8 3 3 9 0 22 -6 28 -6 6 -7 11 -2 12 10 1 38 5 93 14 17 3 32 10 32 15 0 6 3
9 8 9 22 -4 32 3 32 21 0 27 37 59 61 53 19 -5 19 -6 -1 -20 -29 -20 -9 -43
37 -43 l34 0 -6 58 c-5 48 -4 54 7 41 7 -9 18 -14 23 -12z m3555 -18 c0 -16 5
-29 11 -29 5 0 7 -5 4 -10 -4 -6 4 -32 16 -58 27 -55 29 -65 36 -157 7 -113 5
-237 -4 -244 -13 -10 -17 -66 -11 -156 2 -32 -1 -40 -16 -43 -10 -2 -36 -16
-57 -32 -37 -27 -38 -28 -16 -38 17 -8 1 -11 -75 -11 -87 -1 -116 -9 -89 -25
4 -3 19 -33 31 -67 21 -56 22 -62 7 -71 -10 -5 -17 -16 -17 -23 0 -50 -51 42
-63 115 -6 35 -6 35 8 10 8 -14 14 -20 14 -15 1 6 -13 30 -29 54 -16 24 -46
76 -66 116 -38 77 -89 137 -164 195 -63 49 -80 68 -80 85 0 21 11 19 51 -8 19
-12 55 -35 81 -50 l48 -28 -9 25 c-6 13 -29 61 -52 107 -37 75 -40 86 -30 115
9 25 8 37 -4 60 -25 49 -15 58 26 25 18 -14 24 -32 29 -82 7 -63 40 -155 116
-316 l34 -73 49 0 c40 0 51 4 56 19 3 11 12 22 20 25 8 3 15 17 15 32 0 36 43
107 80 134 27 19 30 27 30 76 0 33 -4 54 -11 54 -8 0 -8 4 0 14 8 9 12 59 11
148 -1 73 -1 141 -1 151 1 31 21 8 21 -24z m10920 -4 c14 -13 41 -26 60 -30
19 -4 42 -14 52 -22 14 -13 19 -13 40 1 35 23 109 31 131 14 15 -11 10 -13
-44 -14 -61 -1 -93 -18 -66 -37 13 -9 -1093 -2 -1183 8 -64 6 -675 45 -723 45
-25 1 -28 3 -16 10 9 5 262 15 570 21 422 9 619 9 829 0 151 -7 291 -14 310
-17 l35 -5 -35 31 c-32 29 -33 31 -10 25 14 -4 36 -18 50 -30z m-2954 -33 c-4
-50 2 -72 14 -53 3 7 7 -3 7 -21 0 -17 5 -34 11 -36 7 -2 12 -10 12 -18 0 -7
-6 -11 -14 -8 -8 3 -17 1 -20 -4 -8 -13 -79 -4 -88 11 -6 9 -10 9 -15 1 -12
-17 -60 -27 -138 -29 -38 0 -76 -3 -83 -6 -10 -3 -15 8 -18 36 -5 56 13 66 99
55 45 -5 73 -15 88 -29 13 -12 26 -21 31 -21 14 0 9 27 -7 40 -8 7 -15 15 -15
19 0 7 74 41 90 41 9 0 14 14 11 33 0 4 4 7 9 7 6 0 10 9 10 21 0 11 4 18 10
14 5 -3 8 -27 6 -53z m-12888 13 c10 4 12 0 8 -10 -3 -9 -2 -13 4 -10 8 5 28
-21 28 -38 0 -4 5 -21 12 -37 13 -30 26 -35 83 -31 34 3 34 -8 -2 -45 -15 -16
-31 -38 -35 -49 -10 -30 -43 -66 -63 -69 -13 -2 -19 -14 -21 -44 -3 -37 -6
-42 -27 -42 -44 0 -72 90 -44 142 8 15 17 18 35 14 28 -7 30 3 13 74 -7 31 -7
46 0 48 21 7 11 20 -20 27 -30 7 -50 36 -43 63 14 45 13 44 36 22 12 -11 29
-18 36 -15z m5577 -95 c9 -8 20 -21 24 -30 3 -8 23 -47 45 -87 45 -86 90 -117
178 -126 75 -7 83 -13 62 -44 -13 -21 -14 -27 -3 -34 21 -13 26 -12 85 21 104
57 267 76 425 51 151 -25 168 -41 186 -183 l6 -48 208 0 c161 0 209 3 209 13
0 9 2 9 8 0 8 -13 100 -15 307 -8 44 1 232 3 419 5 278 2 340 0 347 -11 7 -12
11 -12 18 -1 6 10 42 13 157 11 82 -2 176 -1 209 0 63 3 436 6 745 5 102 0
491 -1 865 -1 l680 -1 185 -32 c102 -18 196 -38 210 -45 37 -19 792 -40 815
-23 6 4 53 3 105 -1 52 -4 103 -4 112 1 10 5 19 4 23 -2 3 -5 42 -10 85 -10
43 0 82 -5 85 -10 4 -6 -46 -11 -142 -12 -81 -1 -164 -2 -183 -3 -19 -1 -550
-7 -1180 -13 -1790 -18 -2158 -22 -2555 -28 -591 -9 -2274 -11 -2287 -3 -25
16 4 22 104 21 80 0 111 4 139 19 29 14 44 16 70 9 40 -12 220 -12 239 0 9 5
-3 11 -36 15 -64 10 -68 13 -50 40 23 35 2 42 -48 18 -51 -26 -106 -43 -134
-43 -25 0 -29 22 -8 39 12 10 29 61 20 61 -1 0 -33 -14 -71 -32 -52 -24 -82
-31 -125 -31 -48 0 -58 -3 -58 -17 0 -9 -9 -25 -21 -36 -20 -18 -20 -18 -18 6
4 41 -1 84 -8 77 -3 -4 -8 -19 -9 -34 -4 -36 -54 -132 -75 -144 -9 -4 -64 -11
-122 -15 l-106 -7 -15 38 c-9 21 -13 47 -10 58 6 19 3 20 -45 14 -47 -6 -66 3
-41 18 6 3 10 16 10 27 0 12 -3 18 -6 15 -4 -3 -16 5 -27 19 -18 23 -25 25
-67 21 -86 -9 -109 24 -116 168 -3 77 11 310 20 340 5 15 139 3 161 -15z
m8213 8 c8 -8 42 -13 87 -14 62 0 78 -3 90 -20 13 -17 12 -21 -6 -36 -17 -15
-41 -18 -125 -18 -110 0 -121 5 -115 50 4 32 19 50 40 50 9 0 23 -6 29 -12z
m-14157 -180 c30 -9 49 -8 81 1 40 13 43 12 65 -13 20 -23 25 -25 48 -14 21 9
28 9 34 -1 6 -9 11 -10 15 -2 14 22 24 10 20 -21 -10 -81 -10 -82 31 -120 22
-21 35 -38 28 -38 -6 0 -15 5 -18 10 -13 20 -27 10 -21 -15 5 -18 2 -25 -9
-25 -8 0 -15 -7 -15 -15 0 -8 -5 -15 -11 -15 -11 0 -3 38 12 54 12 13 11 43
-1 51 -6 4 -22 -1 -37 -10 -21 -14 -24 -22 -19 -48 4 -18 11 -33 16 -35 5 -2
6 -10 3 -18 -4 -10 4 -14 33 -15 38 -1 38 -2 9 -9 -16 -4 -25 -9 -20 -10 6 -1
-2 -5 -17 -10 -15 -4 -95 -9 -176 -9 -140 -2 -202 7 -202 28 0 17 71 36 149
40 32 2 -75 88 -151 123 -21 9 -38 22 -38 28 0 15 49 33 90 32 19 0 40 4 46 9
14 11 77 -10 128 -43 40 -26 45 -38 17 -38 -31 0 -31 -13 0 -59 16 -24 26 -47
23 -52 -3 -5 11 -9 30 -9 32 0 35 2 34 30 -1 17 -5 30 -10 30 -4 0 -8 9 -8 19
0 10 -7 21 -15 25 -8 3 -15 1 -15 -4 0 -6 -4 -10 -10 -10 -17 0 -11 19 12 42
30 30 31 47 8 86 -18 28 -25 32 -65 32 -29 0 -45 -4 -45 -12 0 -9 -18 -13 -60
-12 -34 1 -64 4 -67 8 -9 9 27 46 45 46 8 0 32 -5 53 -12z m17433 -47 c33 -6
62 -14 65 -19 3 -5 15 -12 26 -17 18 -7 16 -9 -12 -17 -37 -10 -41 -23 -16
-50 15 -17 15 -18 -15 -18 -23 0 -32 6 -37 21 -7 20 -12 21 -71 16 -49 -5 -67
-3 -79 9 -20 21 -19 36 6 69 17 20 28 26 48 22 14 -3 53 -10 85 -16z m-4446
-184 c18 -15 14 -38 -8 -44 -24 -6 -26 -19 -5 -27 8 -3 15 -12 15 -20 0 -8 9
-18 20 -21 25 -8 25 -13 0 -45 -11 -14 -20 -33 -20 -42 0 -11 -8 -18 -19 -18
-11 0 -23 -5 -26 -10 -4 -6 -13 -7 -23 -1 -9 4 -35 12 -57 16 -91 16 -121 58
-91 128 15 37 41 57 75 57 11 0 28 11 36 24 14 21 22 24 53 19 20 -3 43 -10
50 -16z m1644 -52 c101 -9 264 -24 363 -35 99 -10 248 -24 330 -31 83 -6 161
-13 175 -14 14 -1 67 -3 119 -4 52 0 91 -4 88 -7 -9 -9 -1161 -34 -1215 -27
-23 3 -42 11 -41 17 3 27 -2 36 -21 36 -13 0 -20 7 -20 19 0 11 -5 23 -10 26
-15 9 8 35 31 35 10 0 100 -7 201 -15z m-1112 -198 c27 4 40 2 40 -6 0 -7 -8
-10 -17 -7 -20 6 -31 0 -53 -28 -14 -18 -13 -19 4 -13 16 6 17 5 6 -8 -10 -12
-9 -15 5 -15 14 0 15 -3 6 -14 -6 -7 -9 -21 -5 -30 5 -12 2 -15 -10 -10 -9 3
-16 1 -16 -6 0 -6 -10 -10 -22 -8 -13 2 -31 -5 -42 -14 -12 -11 -29 -15 -50
-12 -72 11 -96 10 -97 -6 0 -13 -1 -13 -6 0 -3 8 -14 26 -24 39 -11 13 -19 29
-19 35 0 6 5 4 10 -4 8 -12 10 -11 10 7 0 17 9 24 36 32 19 5 42 7 49 4 8 -3
22 3 32 12 13 13 28 16 67 12 28 -3 43 -3 34 0 -20 5 -23 18 -8 28 5 3 6 13 3
23 -6 16 -6 16 10 0 12 -12 27 -15 57 -11z m-9177 -85 c9 -8 29 -40 44 -71 24
-50 28 -70 30 -176 3 -113 3 -118 -12 -92 -9 15 -13 33 -9 39 4 6 3 8 -3 5 -5
-3 -27 12 -49 34 -21 22 -60 53 -85 70 -26 16 -59 47 -73 68 -27 38 -50 101
-41 110 3 2 5 -1 5 -7 0 -7 14 -12 30 -12 26 0 30 4 30 28 l0 29 58 -5 c31 -2
65 -11 75 -20z m12735 -104 c169 -35 190 -44 174 -74 -10 -19 -15 -20 -129 -8
-65 7 -138 13 -163 13 -34 1 -59 10 -99 35 -67 43 -68 45 -51 56 27 17 115 9
268 -22z"/>
<path d="M17688 3597 c-24 -20 -27 -29 -27 -87 0 -36 -3 -82 -7 -102 -4 -25
-2 -38 5 -38 6 0 11 5 11 10 0 20 41 10 49 -12 11 -30 4 -41 -23 -34 -19 5
-21 1 -21 -33 0 -21 8 -50 18 -64 16 -25 23 -27 82 -27 57 0 67 3 90 27 l25
28 12 -33 c14 -37 43 -43 52 -9 6 20 9 18 31 -23 13 -25 24 -53 25 -62 0 -15
10 -18 65 -18 l65 0 0 85 c0 49 -7 111 -17 146 -16 57 -16 62 1 90 18 30 18
31 -2 45 -26 18 -34 50 -16 65 25 20 15 24 -62 23 -75 -1 -98 -11 -88 -38 5
-14 -48 -15 -59 -1 -4 5 -4 -50 -1 -122 6 -121 5 -133 -10 -133 -9 0 -25 13
-34 30 -9 16 -23 30 -29 30 -7 0 -13 7 -13 16 0 10 6 14 14 11 24 -9 36 15 36
74 0 76 -16 119 -44 119 -12 0 -33 13 -46 30 -30 35 -47 37 -82 7z"/>
<path d="M4193 825 c-15 -6 -23 -19 -24 -35 -1 -18 -3 -20 -6 -7 -6 22 -25 18
-29 -6 -1 -9 4 -17 12 -17 9 0 12 -4 9 -10 -4 -6 7 -10 27 -9 18 1 25 3 16 6
-10 2 -18 9 -18 14 0 11 41 2 50 -11 9 -13 59 -20 65 -9 4 6 14 8 22 5 11 -5
13 -2 9 10 -4 12 1 10 20 -5 15 -12 32 -21 38 -21 7 0 6 4 -2 9 -10 6 -10 10
2 20 19 16 4 51 -22 51 -10 0 -23 5 -30 12 -15 15 -108 17 -139 3z"/>
<path d="M7370 6369 c-19 -6 -42 -11 -50 -13 -8 -1 -25 -7 -36 -14 -12 -6 -24
-9 -27 -5 -4 3 -13 1 -20 -5 -8 -7 -16 -9 -19 -7 -3 3 -18 0 -34 -6 -16 -7
-49 -13 -72 -15 -24 -2 -50 -8 -58 -15 -9 -7 -14 -8 -14 -1 0 22 -41 -2 -85
-50 -61 -67 -96 -167 -62 -182 9 -5 9 -7 0 -12 -8 -3 -10 -16 -7 -33 4 -16 1
-32 -5 -35 -6 -4 -9 -11 -6 -15 2 -5 0 -35 -5 -67 -6 -32 -10 -89 -11 -127 -1
-37 -5 -70 -10 -73 -5 -3 -5 -13 1 -23 5 -10 6 -22 2 -26 -4 -4 29 -5 73 -2
196 15 476 18 670 8 208 -11 485 -35 544 -47 24 -5 31 -3 31 10 0 21 18 21 22
0 2 -10 25 -23 58 -34 30 -10 64 -21 74 -25 14 -6 17 -5 12 4 -4 6 -11 51 -15
99 -3 50 -11 86 -17 85 -6 -1 -9 30 -8 85 l2 87 139 -3 c412 -8 1038 -23 1173
-27 85 -3 355 -13 600 -21 405 -14 756 -17 788 -6 6 2 12 11 12 19 0 8 5 11
11 8 6 -4 8 -13 5 -21 -3 -8 1 -14 9 -14 26 0 16 36 -12 49 -16 7 -25 10 -21
6 7 -8 -15 -35 -28 -35 -5 0 -3 5 4 12 8 8 7 15 -8 28 -19 17 -18 18 40 29 33
7 65 9 70 6 6 -4 10 -3 9 2 -4 23 2 35 17 29 11 -4 19 2 26 22 6 16 24 37 39
48 15 10 26 21 24 24 -8 13 23 38 60 47 62 15 62 15 -2135 83 -355 10 -712 22
-793 26 l-149 6 26 -39 c26 -39 80 -172 73 -180 -6 -5 -32 37 -41 64 -4 12
-19 32 -33 43 -23 18 -28 19 -35 5 -8 -13 -12 -12 -31 5 -12 11 -27 18 -35 15
-7 -2 -15 2 -18 10 -3 7 -12 11 -19 8 -8 -2 -31 9 -52 25 -25 20 -100 51 -223
92 -102 34 -193 67 -204 72 -40 21 -167 31 -216 17z"/>
<path d="M4482 6008 c3 -7 51 -31 107 -54 56 -24 112 -49 124 -57 12 -7 38
-19 57 -25 33 -11 34 -11 15 4 l-20 16 20 -2 c39 -4 39 0 1 35 -37 34 -64 44
-203 79 -75 19 -106 20 -101 4z"/>
<path d="M3486 5979 c-2 -8 -6 -46 -9 -85 -4 -70 -27 -128 -42 -105 -3 6 -10
11 -14 11 -10 0 -2 -151 8 -163 4 -4 22 6 41 23 33 30 35 30 149 30 108 0 116
1 140 24 15 14 52 41 85 60 46 28 67 49 97 98 21 35 38 73 39 86 0 21 -3 22
-108 22 -60 0 -170 3 -245 7 -113 5 -137 4 -141 -8z"/>
<path d="M5043 5958 c-5 -7 -17 -32 -25 -56 l-16 -42 33 -56 c19 -31 35 -59
37 -63 2 -3 28 -23 58 -43 l55 -37 370 -6 c204 -3 394 -8 423 -11 l52 -5 0 46
c0 65 -20 239 -29 247 -3 4 -189 12 -411 18 -223 5 -435 12 -471 15 -48 4 -69
2 -76 -7z"/>
<path d="M6482 5912 c-4 -13 1 -95 15 -224 5 -56 7 -58 35 -58 16 0 31 6 33
13 2 6 9 62 15 122 6 61 13 120 16 132 5 19 2 21 -51 25 -41 2 -59 -1 -63 -10z"/>
<path d="M8636 5824 c-3 -26 -6 -91 -6 -144 l0 -97 278 -7 c152 -4 421 -11
597 -16 176 -5 478 -14 670 -20 835 -24 948 -30 970 -49 16 -15 27 -16 53 -9
18 5 30 13 27 18 -3 4 1 10 7 13 10 4 11 7 1 18 -7 7 -13 26 -13 41 0 16 -6
28 -12 28 -10 0 -10 2 0 9 10 6 10 10 -3 21 -8 7 -15 9 -15 4 -1 -26 -40 84
-40 112 0 18 -4 35 -9 38 -13 8 -152 15 -531 26 -507 15 -1248 39 -1545 50
-143 6 -297 10 -341 10 l-81 0 -7 -46z"/>
<path d="M5620 5575 c-8 -2 -33 -7 -55 -10 l-40 -7 80 -29 c44 -17 125 -36
180 -43 114 -16 119 -18 197 -63 31 -18 60 -33 64 -33 8 0 -2 169 -11 178 -14
15 -163 13 -214 -2 -66 -19 -61 -19 -61 -1 0 12 -13 15 -62 14 -35 -1 -70 -3
-78 -4z"/>
<path d="M6513 5436 c8 -145 19 -131 -118 -142 -49 -4 -98 -10 -109 -14 -16
-6 -15 -8 10 -18 33 -12 197 -32 271 -32 58 0 126 -29 148 -64 11 -17 30 -28
53 -31 87 -14 92 -16 92 -36 0 -12 9 -21 28 -25 62 -14 77 -21 82 -44 4 -16
16 -27 38 -32 42 -11 60 -47 45 -88 -10 -28 -10 -28 63 -65 91 -46 110 -65 65
-65 -29 0 -41 -13 -22 -24 4 -3 6 -17 3 -31 -4 -22 -9 -25 -46 -25 -22 0 -47
-4 -54 -9 -18 -11 -39 -52 -47 -93 -3 -18 -10 -44 -15 -58 -5 -14 -11 -68 -14
-120 -2 -52 -10 -180 -16 -284 -11 -172 -11 -190 4 -198 14 -8 14 -11 0 -33
-14 -22 -14 -25 6 -45 l21 -21 -31 -10 c-16 -6 -30 -14 -31 -17 -8 -106 -8
-136 0 -145 10 -13 -8 -107 -28 -146 -7 -12 -13 -48 -14 -79 l-2 -57 405 -6
c223 -3 432 -9 465 -12 33 -4 238 -9 455 -12 217 -3 487 -8 599 -12 l204 -6
-8 29 c-16 61 -13 68 40 85 28 9 109 26 180 38 72 12 171 28 220 36 50 8 144
18 210 22 l120 8 20 42 c11 23 43 69 70 104 65 81 75 98 75 134 1 58 29 151
64 209 20 33 38 67 41 76 3 9 20 24 38 33 17 9 53 32 80 51 26 19 72 44 103
56 31 11 77 38 102 59 49 41 140 90 205 111 24 7 43 21 50 37 6 14 25 40 42
59 39 42 77 45 126 9 74 -54 72 -54 138 8 70 64 93 74 124 54 46 -29 111 -38
163 -22 27 8 57 15 67 15 10 0 25 7 34 15 14 15 43 94 43 120 0 14 -218 69
-268 68 -42 -1 -48 14 -28 74 9 25 16 68 16 94 0 57 39 149 75 177 71 56 175
74 341 59 l91 -9 -8 52 c-4 29 -10 54 -12 57 -3 2 -76 15 -164 28 -88 13 -191
34 -229 47 -60 20 -69 26 -72 49 l-3 26 -167 6 c-92 4 -420 12 -729 19 -469
10 -567 9 -588 -2 -16 -9 -61 -13 -132 -13 -89 0 -108 3 -119 18 -12 15 -50
18 -373 28 -199 6 -363 8 -366 6 -2 -3 -7 -117 -10 -254 -3 -137 -8 -251 -10
-253 -12 -12 -314 -28 -427 -23 -15 1 -18 11 -19 64 -1 49 -3 55 -8 27 l-6
-35 -180 -6 c-174 -5 -243 -18 -229 -41 3 -5 -1 -20 -10 -33 -9 -13 -16 -38
-16 -54 0 -17 -4 -40 -10 -53 -12 -29 -30 -176 -35 -290 -2 -48 -6 -91 -9 -96
-2 -4 -6 -61 -7 -125 -1 -64 -5 -120 -8 -126 -4 -5 -19 -14 -34 -20 -24 -9
-26 -13 -17 -31 6 -12 18 -24 25 -26 11 -5 12 -12 3 -32 -6 -15 -10 -49 -9
-75 1 -27 -3 -66 -9 -88 -9 -34 -15 -39 -39 -39 -54 0 -94 55 -69 96 14 21 19
82 9 88 -6 4 -9 17 -7 29 3 12 8 72 11 132 4 61 10 148 15 195 13 140 19 600
8 647 -6 24 -13 41 -17 39 -3 -2 -6 9 -7 26 -1 16 -8 36 -15 44 -11 10 -13 31
-9 84 3 38 2 70 -2 70 -5 0 -7 3 -7 8 6 37 -37 47 -256 62 -387 26 -642 75
-662 126 -3 7 -17 14 -31 14 l-25 0 6 -124z m3149 -31 c14 -5 15 -16 11 -63
-3 -31 -9 -61 -14 -66 -5 -6 -9 -23 -9 -39 0 -26 -25 -95 -40 -107 -16 -14
-40 -62 -35 -70 3 -6 2 -10 -3 -10 -10 0 -24 -38 -28 -74 -1 -10 -5 -21 -10
-25 -13 -9 -42 -72 -49 -106 -10 -52 -14 -69 -24 -104 -6 -18 -10 -36 -9 -40
1 -3 -2 -13 -5 -21 -3 -8 -11 -34 -17 -57 -6 -24 -15 -43 -19 -43 -13 0 -19
-48 -8 -59 7 -7 4 -19 -7 -36 -9 -14 -14 -30 -11 -35 3 -5 1 -11 -5 -15 -5 -3
-10 -21 -10 -38 0 -18 -7 -42 -15 -54 -8 -12 -12 -24 -7 -27 21 -13 -1 -86
-27 -86 -13 0 -13 -2 -2 -9 8 -6 10 -14 5 -22 -5 -8 -9 -18 -9 -24 -2 -29 -18
-86 -26 -90 -13 -8 -30 30 -18 42 15 15 21 86 8 94 -9 5 -9 15 1 40 7 19 14
54 16 78 2 24 8 49 14 55 5 5 10 27 10 47 0 21 5 41 11 45 6 3 8 17 5 30 -4
14 -2 43 4 65 6 23 11 60 11 82 0 23 5 60 11 82 11 44 14 132 4 142 -3 3 -2
11 3 17 19 24 19 106 0 143 -15 30 -30 92 -31 128 0 6 -3 15 -7 20 -4 6 -7 25
-7 43 1 17 -2 32 -6 32 -15 0 -8 51 7 56 8 4 15 19 15 34 0 36 16 47 39 26 24
-22 36 -20 56 10 17 26 18 27 114 21 53 -2 104 -8 113 -12z m-1976 -1740 c94
-2 144 -11 144 -26 0 -5 -23 -9 -51 -9 -31 0 -48 -4 -44 -10 3 -5 -3 -10 -14
-10 -12 0 -21 5 -21 10 0 18 -18 11 -25 -10 -9 -29 5 -47 20 -26 14 18 27 8
39 -30 6 -20 2 -22 -64 -28 -89 -9 -180 1 -180 20 0 10 -8 12 -30 8 -18 -4
-30 -2 -30 4 0 6 -8 13 -17 15 -14 4 -13 5 4 6 15 1 21 6 17 15 -3 8 4 16 17
19 13 4 20 10 15 14 -9 10 -13 10 -78 12 -82 2 -47 14 51 17 76 3 93 6 111 24
20 20 22 20 34 5 10 -14 31 -18 102 -20z"/>
<path d="M2608 5453 c-9 -11 -9 -380 0 -446 4 -27 6 -26 91 55 51 50 112 97
151 117 36 19 94 53 129 75 36 23 111 66 168 96 71 37 110 65 123 86 l20 31
-336 -1 c-249 -1 -338 -4 -346 -13z"/>
<path d="M11736 5271 c-10 -10 -19 -37 -20 -59 -2 -22 -6 -44 -10 -50 -3 -5
20 -26 50 -47 31 -20 84 -57 118 -82 l61 -45 9 112 c5 66 5 127 0 149 l-9 36
-91 3 c-79 2 -92 0 -108 -17z"/>
<path d="M5998 5259 c-57 -29 -77 -70 -112 -224 -8 -33 -24 -94 -35 -135 -12
-41 -29 -113 -37 -160 -8 -47 -18 -92 -21 -100 -3 -8 -6 -32 -5 -52 0 -23 -4
-38 -11 -38 -8 0 -7 -4 2 -9 8 -5 12 -19 9 -35 -3 -14 -2 -26 2 -26 16 0 33
62 42 160 13 143 50 303 89 385 11 22 19 52 19 66 0 24 51 100 103 151 38 40
14 49 -45 17z"/>
<path d="M6456 4752 c-3 -5 15 -67 41 -138 42 -119 59 -171 102 -311 13 -43
19 -51 31 -42 11 8 12 12 3 16 -17 6 -16 22 3 58 22 39 24 126 4 141 -16 13
-24 135 -9 144 4 3 -20 36 -54 73 -47 50 -70 67 -89 67 -15 0 -29 -4 -32 -8z"/>
<path d="M11445 4752 c-52 -11 -85 -83 -85 -188 0 -31 -4 -43 -11 -38 -6 3
-15 1 -19 -6 -14 -23 1 -47 41 -64 45 -20 49 -38 15 -69 -21 -20 -53 -93 -44
-102 6 -6 121 22 162 39 21 10 80 57 130 105 82 78 140 123 200 156 10 6 19
15 20 20 0 6 -60 26 -134 45 -103 27 -145 43 -175 66 -43 34 -68 43 -100 36z"/>
<path d="M12545 4730 c-3 -5 -1 -10 6 -10 7 0 5 -6 -6 -14 -11 -8 -16 -19 -12
-29 7 -19 -26 -40 -82 -52 -34 -7 -101 -64 -101 -86 0 -6 -7 -9 -14 -6 -10 4
-13 1 -9 -9 3 -8 2 -14 -3 -12 -13 4 -58 -43 -61 -65 -2 -9 -19 -32 -38 -49
-20 -17 -34 -37 -31 -44 3 -8 0 -11 -9 -8 -28 11 -34 -65 -41 -532 l-7 -471
24 -6 c41 -11 94 -8 115 7 11 8 36 19 55 24 33 10 33 10 6 11 -16 1 -37 6 -49
12 -20 11 -20 11 2 34 21 22 21 22 1 28 -18 4 -18 8 -6 43 7 20 21 43 31 51
15 11 16 13 2 13 -21 0 -32 16 -21 33 9 15 12 77 3 77 -10 0 -8 64 3 78 6 8 6
12 -1 12 -11 0 -11 84 0 95 4 4 3 16 -3 27 -8 14 -7 24 3 35 8 10 12 35 10 70
-3 42 0 59 14 74 14 15 15 22 6 28 -7 4 -13 25 -15 46 l-2 39 62 23 c35 12
100 30 145 39 47 9 92 24 103 35 60 55 193 79 437 79 l193 0 -122 49 c-146 58
-202 89 -268 151 -50 47 -152 113 -252 164 -59 30 -60 30 -68 16z"/>
<path d="M11087 4154 c-4 -4 -7 -58 -7 -120 0 -97 -2 -114 -17 -123 -17 -9
-16 -11 2 -30 17 -20 17 -23 3 -37 -20 -20 -38 -10 -38 19 0 31 -52 54 -87 38
-20 -9 -24 -17 -19 -35 7 -28 -7 -36 -64 -36 -34 0 -44 -7 -97 -64 -65 -71
-131 -183 -108 -183 8 0 14 3 13 6 0 3 0 12 1 19 1 17 21 15 21 -2 0 -8 5 -18
12 -22 7 -5 8 -3 3 6 -6 10 -4 12 9 7 10 -4 20 -7 23 -7 2 0 -5 -17 -17 -37
l-22 -38 31 35 c17 19 31 40 31 48 0 7 4 10 10 7 5 -3 19 -1 30 5 16 9 24 8
36 -5 8 -8 20 -15 25 -15 5 0 9 -8 9 -17 -1 -16 -2 -16 -15 1 -14 19 -15 19
-15 -6 0 -15 -4 -30 -10 -33 -5 -3 -10 -15 -10 -26 0 -11 -7 -19 -16 -19 -8 0
-12 -4 -9 -10 3 -5 15 -10 25 -10 10 0 20 -5 22 -12 3 -8 12 -8 36 3 18 8 32
17 32 22 0 4 9 2 21 -5 17 -11 22 -10 32 3 7 9 17 14 24 12 6 -2 15 1 19 8 4
8 3 9 -4 5 -7 -4 -12 -1 -12 8 0 9 -7 16 -15 16 -10 0 -15 9 -14 28 l1 27 8
-25 c4 -14 8 -19 9 -12 1 6 8 12 17 12 8 0 13 4 9 9 -3 5 -1 12 4 15 13 8 19
-32 21 -129 1 -44 3 -91 5 -105 2 -14 4 -28 4 -32 1 -5 30 -8 66 -8 61 0 66 2
75 26 6 14 10 37 10 51 0 19 4 24 16 19 9 -4 27 0 39 8 20 13 24 28 33 128 6
62 13 145 15 184 4 69 4 71 -19 66 -13 -2 -25 -13 -27 -26 -4 -18 -4 -18 -6 4
0 14 -10 33 -20 42 -18 16 -20 15 -33 -4 -23 -34 -48 -17 -48 33 0 32 3 39 13
32 6 -6 20 -13 30 -16 15 -6 16 -4 7 13 -6 11 -20 20 -30 20 -23 0 -22 -8 -20
143 1 72 -2 117 -8 117 -6 0 -17 2 -24 5 -8 3 -17 2 -21 -1z"/>
<path d="M605 3760 c11 -5 47 -15 80 -22 l60 -13 -110 -5 c-118 -6 -120 -12
-10 -34 l70 -14 -75 -2 c-41 -1 -95 -5 -120 -9 l-45 -7 40 -7 c22 -3 65 -10
95 -14 l55 -7 -55 -7 c-30 -4 -175 -4 -323 -1 -199 4 -267 2 -267 -6 0 -9 58
-12 212 -12 222 0 397 -15 379 -33 -11 -11 -499 -12 -557 -1 -22 4 -34 2 -34
-5 0 -7 21 -11 53 -12 122 -2 358 -18 437 -30 l85 -13 -55 -8 c-54 -8 -469 -1
-502 8 -11 3 -18 0 -18 -9 0 -11 43 -15 235 -21 129 -3 245 -10 257 -15 45
-16 -69 -23 -285 -15 -117 3 -208 3 -204 -2 4 -4 94 -12 200 -16 106 -4 217
-13 247 -21 l55 -13 -83 -8 c-46 -4 -160 -4 -253 0 -165 7 -169 6 -169 -13 0
-17 9 -21 68 -26 110 -11 1567 -6 1492 5 -36 5 -204 10 -375 12 -171 2 -336 7
-368 11 -54 7 -85 24 -59 33 7 2 12 10 12 18 0 17 -56 16 490 14 256 -1 462 1
459 4 -13 13 -306 26 -592 27 -172 0 -322 3 -333 5 -24 6 -40 54 -22 65 6 4 1
10 -11 14 -25 8 -27 20 -4 29 14 6 15 9 3 16 -11 7 -11 11 -1 23 8 11 9 17 1
22 -31 19 21 25 228 26 125 1 308 5 407 9 130 6 69 7 -222 4 -395 -3 -403 -3
-403 16 0 11 -4 20 -9 20 -5 0 -11 10 -13 23 -3 20 -8 22 -83 24 -55 1 -74 -1
-60 -7z"/>
<path d="M820 3550 c-19 -4 172 -7 425 -7 274 0 422 3 365 7 -124 10 -745 10
-790 0z"/>
</g>
</svg>
